<svg xmlns="http://www.w3.org/2000/svg" xmlns:xlink="http://www.w3.org/1999/xlink" width="1280" zoomAndPan="magnify" viewBox="0 0 960 479.999983" height="640" preserveAspectRatio="xMidYMid meet" version="1.0"><defs><g/><clipPath id="9e8687e4d4"><path d="M 265 164 L 269 164 L 269 168 L 265 168 Z M 265 164 " clip-rule="nonzero"/></clipPath><clipPath id="b10fee239f"><path d="M 267.816406 106.714844 L 300.625 139.527344 L 267.816406 172.335938 L 235.003906 139.527344 Z M 267.816406 106.714844 " clip-rule="nonzero"/></clipPath><clipPath id="0d98204b02"><path d="M 267.816406 106.714844 L 300.625 139.527344 L 267.816406 172.335938 L 235.003906 139.527344 Z M 267.816406 106.714844 " clip-rule="nonzero"/></clipPath><clipPath id="5461a52bf2"><path d="M 267 162 L 271 162 L 271 166 L 267 166 Z M 267 162 " clip-rule="nonzero"/></clipPath><clipPath id="8726301169"><path d="M 267.816406 106.714844 L 300.625 139.527344 L 267.816406 172.335938 L 235.003906 139.527344 Z M 267.816406 106.714844 " clip-rule="nonzero"/></clipPath><clipPath id="b023ccc0e5"><path d="M 267.816406 106.714844 L 300.625 139.527344 L 267.816406 172.335938 L 235.003906 139.527344 Z M 267.816406 106.714844 " clip-rule="nonzero"/></clipPath><clipPath id="06a89b3dc1"><path d="M 252 126 L 256 126 L 256 130 L 252 130 Z M 252 126 " clip-rule="nonzero"/></clipPath><clipPath id="02baa8b21c"><path d="M 267.816406 106.714844 L 300.625 139.527344 L 267.816406 172.335938 L 235.003906 139.527344 Z M 267.816406 106.714844 " clip-rule="nonzero"/></clipPath><clipPath id="10d8e7af28"><path d="M 267.816406 106.714844 L 300.625 139.527344 L 267.816406 172.335938 L 235.003906 139.527344 Z M 267.816406 106.714844 " clip-rule="nonzero"/></clipPath><clipPath id="7e40ddbfa9"><path d="M 254 124 L 258 124 L 258 128 L 254 128 Z M 254 124 " clip-rule="nonzero"/></clipPath><clipPath id="b5ef4b5af0"><path d="M 267.816406 106.714844 L 300.625 139.527344 L 267.816406 172.335938 L 235.003906 139.527344 Z M 267.816406 106.714844 " clip-rule="nonzero"/></clipPath><clipPath id="3f457bba80"><path d="M 267.816406 106.714844 L 300.625 139.527344 L 267.816406 172.335938 L 235.003906 139.527344 Z M 267.816406 106.714844 " clip-rule="nonzero"/></clipPath><clipPath id="4c4569a9c0"><path d="M 235 111 L 301 111 L 301 171 L 235 171 Z M 235 111 " clip-rule="nonzero"/></clipPath><clipPath id="ea7e221d99"><path d="M 267.816406 106.714844 L 300.625 139.527344 L 267.816406 172.335938 L 235.003906 139.527344 Z M 267.816406 106.714844 " clip-rule="nonzero"/></clipPath><clipPath id="4412bd3d0f"><path d="M 267.816406 106.714844 L 300.625 139.527344 L 267.816406 172.335938 L 235.003906 139.527344 Z M 267.816406 106.714844 " clip-rule="nonzero"/></clipPath><clipPath id="9d2e6d7213"><path d="M 241 136 L 244 136 L 244 139 L 241 139 Z M 241 136 " clip-rule="nonzero"/></clipPath><clipPath id="5b80dd3b1f"><path d="M 267.816406 106.714844 L 300.625 139.527344 L 267.816406 172.335938 L 235.003906 139.527344 Z M 267.816406 106.714844 " clip-rule="nonzero"/></clipPath><clipPath id="cedec5ac88"><path d="M 267.816406 106.714844 L 300.625 139.527344 L 267.816406 172.335938 L 235.003906 139.527344 Z M 267.816406 106.714844 " clip-rule="nonzero"/></clipPath><clipPath id="11db269093"><path d="M 243 138 L 246 138 L 246 141 L 243 141 Z M 243 138 " clip-rule="nonzero"/></clipPath><clipPath id="95e807d211"><path d="M 267.816406 106.714844 L 300.625 139.527344 L 267.816406 172.335938 L 235.003906 139.527344 Z M 267.816406 106.714844 " clip-rule="nonzero"/></clipPath><clipPath id="a5091974ed"><path d="M 267.816406 106.714844 L 300.625 139.527344 L 267.816406 172.335938 L 235.003906 139.527344 Z M 267.816406 106.714844 " clip-rule="nonzero"/></clipPath><clipPath id="a72f5bde8c"><path d="M 245 140 L 249 140 L 249 144 L 245 144 Z M 245 140 " clip-rule="nonzero"/></clipPath><clipPath id="369d79d738"><path d="M 267.816406 106.714844 L 300.625 139.527344 L 267.816406 172.335938 L 235.003906 139.527344 Z M 267.816406 106.714844 " clip-rule="nonzero"/></clipPath><clipPath id="fcdec177d5"><path d="M 267.816406 106.714844 L 300.625 139.527344 L 267.816406 172.335938 L 235.003906 139.527344 Z M 267.816406 106.714844 " clip-rule="nonzero"/></clipPath><clipPath id="19533b1668"><path d="M 239 138 L 247 138 L 247 146 L 239 146 Z M 239 138 " clip-rule="nonzero"/></clipPath><clipPath id="e8f5e7fd8e"><path d="M 267.816406 106.714844 L 300.625 139.527344 L 267.816406 172.335938 L 235.003906 139.527344 Z M 267.816406 106.714844 " clip-rule="nonzero"/></clipPath><clipPath id="79a38b58ce"><path d="M 267.816406 106.714844 L 300.625 139.527344 L 267.816406 172.335938 L 235.003906 139.527344 Z M 267.816406 106.714844 " clip-rule="nonzero"/></clipPath><clipPath id="2eb267e5f2"><path d="M 288 133 L 297 133 L 297 141 L 288 141 Z M 288 133 " clip-rule="nonzero"/></clipPath><clipPath id="2c25485766"><path d="M 267.816406 106.714844 L 300.625 139.527344 L 267.816406 172.335938 L 235.003906 139.527344 Z M 267.816406 106.714844 " clip-rule="nonzero"/></clipPath><clipPath id="6cadb219fb"><path d="M 267.816406 106.714844 L 300.625 139.527344 L 267.816406 172.335938 L 235.003906 139.527344 Z M 267.816406 106.714844 " clip-rule="nonzero"/></clipPath><clipPath id="43b426ec39"><path d="M 286 135 L 295 135 L 295 143 L 286 143 Z M 286 135 " clip-rule="nonzero"/></clipPath><clipPath id="3b7ad433d5"><path d="M 267.816406 106.714844 L 300.625 139.527344 L 267.816406 172.335938 L 235.003906 139.527344 Z M 267.816406 106.714844 " clip-rule="nonzero"/></clipPath><clipPath id="857bae69ec"><path d="M 267.816406 106.714844 L 300.625 139.527344 L 267.816406 172.335938 L 235.003906 139.527344 Z M 267.816406 106.714844 " clip-rule="nonzero"/></clipPath><clipPath id="c21dd1b5bd"><path d="M 266 114 L 271 114 L 271 119 L 266 119 Z M 266 114 " clip-rule="nonzero"/></clipPath><clipPath id="8f29ff0ca4"><path d="M 267.816406 106.714844 L 300.625 139.527344 L 267.816406 172.335938 L 235.003906 139.527344 Z M 267.816406 106.714844 " clip-rule="nonzero"/></clipPath><clipPath id="040a528a0e"><path d="M 267.816406 106.714844 L 300.625 139.527344 L 267.816406 172.335938 L 235.003906 139.527344 Z M 267.816406 106.714844 " clip-rule="nonzero"/></clipPath><clipPath id="9c7211d020"><path d="M 280 150 L 284 150 L 284 154 L 280 154 Z M 280 150 " clip-rule="nonzero"/></clipPath><clipPath id="639bc2ace0"><path d="M 267.816406 106.714844 L 300.625 139.527344 L 267.816406 172.335938 L 235.003906 139.527344 Z M 267.816406 106.714844 " clip-rule="nonzero"/></clipPath><clipPath id="75c6cab252"><path d="M 267.816406 106.714844 L 300.625 139.527344 L 267.816406 172.335938 L 235.003906 139.527344 Z M 267.816406 106.714844 " clip-rule="nonzero"/></clipPath><clipPath id="acb1ec0e6b"><path d="M 278 152 L 282 152 L 282 156 L 278 156 Z M 278 152 " clip-rule="nonzero"/></clipPath><clipPath id="1ff12fdadc"><path d="M 267.816406 106.714844 L 300.625 139.527344 L 267.816406 172.335938 L 235.003906 139.527344 Z M 267.816406 106.714844 " clip-rule="nonzero"/></clipPath><clipPath id="27fb371f32"><path d="M 267.816406 106.714844 L 300.625 139.527344 L 267.816406 172.335938 L 235.003906 139.527344 Z M 267.816406 106.714844 " clip-rule="nonzero"/></clipPath><clipPath id="6d6a50d36d"><path d="M 689 164 L 693 164 L 693 168 L 689 168 Z M 689 164 " clip-rule="nonzero"/></clipPath><clipPath id="5f8a7cf3cf"><path d="M 692.183594 106.714844 L 724.996094 139.527344 L 692.183594 172.335938 L 659.371094 139.527344 Z M 692.183594 106.714844 " clip-rule="nonzero"/></clipPath><clipPath id="4eacf7d624"><path d="M 692.183594 106.714844 L 724.996094 139.527344 L 692.183594 172.335938 L 659.371094 139.527344 Z M 692.183594 106.714844 " clip-rule="nonzero"/></clipPath><clipPath id="c42b28a120"><path d="M 691 162 L 695 162 L 695 166 L 691 166 Z M 691 162 " clip-rule="nonzero"/></clipPath><clipPath id="dfb2dc3c7f"><path d="M 692.183594 106.714844 L 724.996094 139.527344 L 692.183594 172.335938 L 659.371094 139.527344 Z M 692.183594 106.714844 " clip-rule="nonzero"/></clipPath><clipPath id="23a6996302"><path d="M 692.183594 106.714844 L 724.996094 139.527344 L 692.183594 172.335938 L 659.371094 139.527344 Z M 692.183594 106.714844 " clip-rule="nonzero"/></clipPath><clipPath id="0a7d42de56"><path d="M 676 126 L 681 126 L 681 130 L 676 130 Z M 676 126 " clip-rule="nonzero"/></clipPath><clipPath id="defbe3a665"><path d="M 692.183594 106.714844 L 724.996094 139.527344 L 692.183594 172.335938 L 659.371094 139.527344 Z M 692.183594 106.714844 " clip-rule="nonzero"/></clipPath><clipPath id="4b157faf01"><path d="M 692.183594 106.714844 L 724.996094 139.527344 L 692.183594 172.335938 L 659.371094 139.527344 Z M 692.183594 106.714844 " clip-rule="nonzero"/></clipPath><clipPath id="a0411ec31c"><path d="M 678 124 L 683 124 L 683 128 L 678 128 Z M 678 124 " clip-rule="nonzero"/></clipPath><clipPath id="8587902a0d"><path d="M 692.183594 106.714844 L 724.996094 139.527344 L 692.183594 172.335938 L 659.371094 139.527344 Z M 692.183594 106.714844 " clip-rule="nonzero"/></clipPath><clipPath id="6a68f828fa"><path d="M 692.183594 106.714844 L 724.996094 139.527344 L 692.183594 172.335938 L 659.371094 139.527344 Z M 692.183594 106.714844 " clip-rule="nonzero"/></clipPath><clipPath id="442365412e"><path d="M 659 111 L 725 111 L 725 171 L 659 171 Z M 659 111 " clip-rule="nonzero"/></clipPath><clipPath id="c7c9ff34b5"><path d="M 692.183594 106.714844 L 724.996094 139.527344 L 692.183594 172.335938 L 659.371094 139.527344 Z M 692.183594 106.714844 " clip-rule="nonzero"/></clipPath><clipPath id="b1c91d6773"><path d="M 692.183594 106.714844 L 724.996094 139.527344 L 692.183594 172.335938 L 659.371094 139.527344 Z M 692.183594 106.714844 " clip-rule="nonzero"/></clipPath><clipPath id="2de07366db"><path d="M 665 136 L 668 136 L 668 139 L 665 139 Z M 665 136 " clip-rule="nonzero"/></clipPath><clipPath id="6b676bbd13"><path d="M 692.183594 106.714844 L 724.996094 139.527344 L 692.183594 172.335938 L 659.371094 139.527344 Z M 692.183594 106.714844 " clip-rule="nonzero"/></clipPath><clipPath id="d5703cc319"><path d="M 692.183594 106.714844 L 724.996094 139.527344 L 692.183594 172.335938 L 659.371094 139.527344 Z M 692.183594 106.714844 " clip-rule="nonzero"/></clipPath><clipPath id="c2a99737c6"><path d="M 667 138 L 670 138 L 670 141 L 667 141 Z M 667 138 " clip-rule="nonzero"/></clipPath><clipPath id="e20009a284"><path d="M 692.183594 106.714844 L 724.996094 139.527344 L 692.183594 172.335938 L 659.371094 139.527344 Z M 692.183594 106.714844 " clip-rule="nonzero"/></clipPath><clipPath id="ebf264cbf2"><path d="M 692.183594 106.714844 L 724.996094 139.527344 L 692.183594 172.335938 L 659.371094 139.527344 Z M 692.183594 106.714844 " clip-rule="nonzero"/></clipPath><clipPath id="96c361b180"><path d="M 669 140 L 674 140 L 674 144 L 669 144 Z M 669 140 " clip-rule="nonzero"/></clipPath><clipPath id="5764c04275"><path d="M 692.183594 106.714844 L 724.996094 139.527344 L 692.183594 172.335938 L 659.371094 139.527344 Z M 692.183594 106.714844 " clip-rule="nonzero"/></clipPath><clipPath id="59fde7de63"><path d="M 692.183594 106.714844 L 724.996094 139.527344 L 692.183594 172.335938 L 659.371094 139.527344 Z M 692.183594 106.714844 " clip-rule="nonzero"/></clipPath><clipPath id="5617a2a7ce"><path d="M 663 138 L 672 138 L 672 146 L 663 146 Z M 663 138 " clip-rule="nonzero"/></clipPath><clipPath id="bd8d643400"><path d="M 692.183594 106.714844 L 724.996094 139.527344 L 692.183594 172.335938 L 659.371094 139.527344 Z M 692.183594 106.714844 " clip-rule="nonzero"/></clipPath><clipPath id="5e24d68898"><path d="M 692.183594 106.714844 L 724.996094 139.527344 L 692.183594 172.335938 L 659.371094 139.527344 Z M 692.183594 106.714844 " clip-rule="nonzero"/></clipPath><clipPath id="3bc012b91f"><path d="M 713 133 L 721 133 L 721 141 L 713 141 Z M 713 133 " clip-rule="nonzero"/></clipPath><clipPath id="276ec8073d"><path d="M 692.183594 106.714844 L 724.996094 139.527344 L 692.183594 172.335938 L 659.371094 139.527344 Z M 692.183594 106.714844 " clip-rule="nonzero"/></clipPath><clipPath id="fe08ce166d"><path d="M 692.183594 106.714844 L 724.996094 139.527344 L 692.183594 172.335938 L 659.371094 139.527344 Z M 692.183594 106.714844 " clip-rule="nonzero"/></clipPath><clipPath id="02e01276e8"><path d="M 711 135 L 719 135 L 719 143 L 711 143 Z M 711 135 " clip-rule="nonzero"/></clipPath><clipPath id="aae6cc57c5"><path d="M 692.183594 106.714844 L 724.996094 139.527344 L 692.183594 172.335938 L 659.371094 139.527344 Z M 692.183594 106.714844 " clip-rule="nonzero"/></clipPath><clipPath id="41336f8f8e"><path d="M 692.183594 106.714844 L 724.996094 139.527344 L 692.183594 172.335938 L 659.371094 139.527344 Z M 692.183594 106.714844 " clip-rule="nonzero"/></clipPath><clipPath id="7308c6a8e6"><path d="M 691 114 L 696 114 L 696 119 L 691 119 Z M 691 114 " clip-rule="nonzero"/></clipPath><clipPath id="9df012477f"><path d="M 692.183594 106.714844 L 724.996094 139.527344 L 692.183594 172.335938 L 659.371094 139.527344 Z M 692.183594 106.714844 " clip-rule="nonzero"/></clipPath><clipPath id="7b4f46fc6a"><path d="M 692.183594 106.714844 L 724.996094 139.527344 L 692.183594 172.335938 L 659.371094 139.527344 Z M 692.183594 106.714844 " clip-rule="nonzero"/></clipPath><clipPath id="e3b546f1ec"><path d="M 704 150 L 709 150 L 709 154 L 704 154 Z M 704 150 " clip-rule="nonzero"/></clipPath><clipPath id="6909a4af99"><path d="M 692.183594 106.714844 L 724.996094 139.527344 L 692.183594 172.335938 L 659.371094 139.527344 Z M 692.183594 106.714844 " clip-rule="nonzero"/></clipPath><clipPath id="6cd2ee18a0"><path d="M 692.183594 106.714844 L 724.996094 139.527344 L 692.183594 172.335938 L 659.371094 139.527344 Z M 692.183594 106.714844 " clip-rule="nonzero"/></clipPath><clipPath id="71f2cc8f7c"><path d="M 702 152 L 706 152 L 706 156 L 702 156 Z M 702 152 " clip-rule="nonzero"/></clipPath><clipPath id="15e89029d3"><path d="M 692.183594 106.714844 L 724.996094 139.527344 L 692.183594 172.335938 L 659.371094 139.527344 Z M 692.183594 106.714844 " clip-rule="nonzero"/></clipPath><clipPath id="974a756034"><path d="M 692.183594 106.714844 L 724.996094 139.527344 L 692.183594 172.335938 L 659.371094 139.527344 Z M 692.183594 106.714844 " clip-rule="nonzero"/></clipPath></defs><g fill="#004aad" fill-opacity="1"><g transform="translate(305.612125, 156.591438)"><g><path d="M 25.390625 -26.890625 L 9.5 -26.890625 L 9.5 -17.75 L 23.90625 -17.75 L 23.90625 -12.984375 L 9.5 -12.984375 L 9.5 0 L 4.171875 0 L 4.171875 -31.6875 L 25.4375 -31.6875 Z M 25.390625 -26.890625 "/></g></g></g><g fill="#004aad" fill-opacity="1"><g transform="translate(336.16761, 156.591438)"><g><path d="M 24.265625 0 L 18.46875 -9.59375 C 18.164062 -9.5625 17.679688 -9.546875 17.015625 -9.546875 L 9.5 -9.546875 L 9.5 0 L 4.171875 0 L 4.171875 -31.6875 L 17.015625 -31.6875 C 21.054688 -31.6875 24.191406 -30.742188 26.421875 -28.859375 C 28.660156 -26.972656 29.78125 -24.3125 29.78125 -20.875 C 29.78125 -18.332031 29.210938 -16.1875 28.078125 -14.4375 C 26.953125 -12.6875 25.332031 -11.40625 23.21875 -10.59375 L 30.328125 0 Z M 9.5 -14.34375 L 17.015625 -14.34375 C 22.148438 -14.34375 24.71875 -16.472656 24.71875 -20.734375 C 24.71875 -24.835938 22.148438 -26.890625 17.015625 -26.890625 L 9.5 -26.890625 Z M 9.5 -14.34375 "/></g></g></g><g fill="#004aad" fill-opacity="1"><g transform="translate(373.422666, 156.591438)"><g><path d="M 24.625 -7.15625 L 8.640625 -7.15625 L 5.609375 0 L 0.046875 0 L 14.03125 -31.6875 L 19.515625 -31.6875 L 33.359375 0 L 27.65625 0 Z M 22.59375 -11.90625 L 16.609375 -25.984375 L 10.640625 -11.90625 Z M 22.59375 -11.90625 "/></g></g></g><g fill="#004aad" fill-opacity="1"><g transform="translate(411.35673, 156.591438)"><g><path d="M 37.65625 0 L 32.734375 0 L 32.6875 -23.671875 L 22.671875 -3.296875 L 19.1875 -3.296875 L 9.1875 -23.671875 L 9.1875 0 L 4.171875 0 L 4.171875 -31.6875 L 10.5 -31.6875 L 20.953125 -10.640625 L 31.375 -31.6875 L 37.65625 -31.6875 Z M 37.65625 0 "/></g></g></g><g fill="#004aad" fill-opacity="1"><g transform="translate(457.755798, 156.591438)"><g><path d="M 26.796875 -26.890625 L 9.5 -26.890625 L 9.5 -18.328125 L 24.984375 -18.328125 L 24.984375 -13.53125 L 9.5 -13.53125 L 9.5 -4.796875 L 27.34375 -4.796875 L 27.34375 0 L 4.171875 0 L 4.171875 -31.6875 L 26.796875 -31.6875 Z M 26.796875 -26.890625 "/></g></g></g><g fill="#004aad" fill-opacity="1"><g transform="translate(491.977945, 156.591438)"><g><path d="M 36.75 0 L 31.28125 0 L 23.765625 -24.71875 L 16.15625 0 L 10.640625 0 L 0.140625 -31.6875 L 5.890625 -31.6875 L 13.578125 -5.9375 L 21.234375 -31.640625 L 26.484375 -31.6875 L 34.171875 -5.9375 L 41.828125 -31.6875 L 47.34375 -31.6875 Z M 36.75 0 "/></g></g></g><g fill="#004aad" fill-opacity="1"><g transform="translate(543.401691, 156.591438)"><g><path d="M 6.375 -27.234375 C 9.601562 -30.296875 13.585938 -31.828125 18.328125 -31.828125 C 23.066406 -31.828125 27.050781 -30.296875 30.28125 -27.234375 C 33.507812 -24.171875 35.125 -20.375 35.125 -15.84375 C 35.125 -11.3125 33.507812 -7.5 30.28125 -4.40625 C 27.050781 -1.320312 23.066406 0.21875 18.328125 0.21875 C 13.585938 0.21875 9.601562 -1.320312 6.375 -4.40625 C 3.144531 -7.5 1.53125 -11.3125 1.53125 -15.84375 C 1.53125 -20.375 3.144531 -24.171875 6.375 -27.234375 Z M 18.375 -27.03125 C 15.238281 -27.03125 12.550781 -25.945312 10.3125 -23.78125 C 8.082031 -21.625 6.96875 -18.976562 6.96875 -15.84375 C 6.96875 -12.707031 8.09375 -10.046875 10.34375 -7.859375 C 12.59375 -5.671875 15.269531 -4.578125 18.375 -4.578125 C 21.488281 -4.578125 24.144531 -5.671875 26.34375 -7.859375 C 28.550781 -10.046875 29.65625 -12.707031 29.65625 -15.84375 C 29.65625 -18.976562 28.550781 -21.625 26.34375 -23.78125 C 24.144531 -25.945312 21.488281 -27.03125 18.375 -27.03125 Z M 18.375 -27.03125 "/></g></g></g><g fill="#004aad" fill-opacity="1"><g transform="translate(584.595, 156.591438)"><g><path d="M 24.265625 0 L 18.46875 -9.59375 C 18.164062 -9.5625 17.679688 -9.546875 17.015625 -9.546875 L 9.5 -9.546875 L 9.5 0 L 4.171875 0 L 4.171875 -31.6875 L 17.015625 -31.6875 C 21.054688 -31.6875 24.191406 -30.742188 26.421875 -28.859375 C 28.660156 -26.972656 29.78125 -24.3125 29.78125 -20.875 C 29.78125 -18.332031 29.210938 -16.1875 28.078125 -14.4375 C 26.953125 -12.6875 25.332031 -11.40625 23.21875 -10.59375 L 30.328125 0 Z M 9.5 -14.34375 L 17.015625 -14.34375 C 22.148438 -14.34375 24.71875 -16.472656 24.71875 -20.734375 C 24.71875 -24.835938 22.148438 -26.890625 17.015625 -26.890625 L 9.5 -26.890625 Z M 9.5 -14.34375 "/></g></g></g><g fill="#004aad" fill-opacity="1"><g transform="translate(621.850056, 156.591438)"><g><path d="M 25.296875 0 L 14.890625 -13.984375 L 9.5 -8.0625 L 9.5 0 L 4.171875 0 L 4.171875 -31.6875 L 9.5 -31.6875 L 9.5 -15.296875 L 24.625 -31.6875 L 30.921875 -31.6875 L 18.65625 -18.15625 L 31.734375 0 Z M 25.296875 0 "/></g></g></g><g clip-path="url(#9e8687e4d4)"><g clip-path="url(#b10fee239f)"><g clip-path="url(#0d98204b02)"><path fill="#004aad" d="M 268.34375 166.515625 L 266.226562 164.398438 L 265.167969 165.457031 L 267.285156 167.574219 L 268.34375 166.515625 " fill-opacity="1" fill-rule="nonzero"/></g></g></g><g clip-path="url(#5461a52bf2)"><g clip-path="url(#8726301169)"><g clip-path="url(#b023ccc0e5)"><path fill="#004aad" d="M 270.460938 164.398438 L 268.34375 162.28125 L 267.285156 163.339844 L 269.402344 165.457031 L 270.460938 164.398438 " fill-opacity="1" fill-rule="nonzero"/></g></g></g><g clip-path="url(#06a89b3dc1)"><g clip-path="url(#02baa8b21c)"><g clip-path="url(#10d8e7af28)"><path fill="#004aad" d="M 252.46875 127.355469 L 254.585938 129.46875 L 255.644531 128.410156 L 253.527344 126.296875 L 252.46875 127.355469 " fill-opacity="1" fill-rule="nonzero"/></g></g></g><g clip-path="url(#7e40ddbfa9)"><g clip-path="url(#b5ef4b5af0)"><g clip-path="url(#3f457bba80)"><path fill="#004aad" d="M 254.585938 125.238281 L 256.703125 127.355469 L 257.761719 126.296875 L 255.644531 124.179688 L 254.585938 125.238281 " fill-opacity="1" fill-rule="nonzero"/></g></g></g><g clip-path="url(#4c4569a9c0)"><g clip-path="url(#ea7e221d99)"><g clip-path="url(#4412bd3d0f)"><path fill="#004aad" d="M 290.042969 131.058594 L 298.507812 139.527344 L 293.21875 144.816406 L 284.75 136.351562 Z M 279.988281 140.054688 L 278.929688 141.113281 C 278.636719 141.40625 278.160156 141.40625 277.871094 141.113281 L 266.226562 129.46875 C 265.9375 129.179688 265.9375 128.703125 266.226562 128.410156 L 267.285156 127.355469 C 267.578125 127.0625 268.050781 127.0625 268.34375 127.355469 L 279.988281 138.996094 C 280.277344 139.289062 280.277344 139.761719 279.988281 140.054688 Z M 275.222656 141.644531 C 274.933594 141.933594 274.457031 141.933594 274.164062 141.644531 L 265.699219 133.175781 C 265.40625 132.882812 265.40625 132.40625 265.699219 132.117188 C 265.988281 131.824219 266.464844 131.824219 266.757812 132.117188 L 275.222656 140.585938 C 275.515625 140.875 275.515625 141.351562 275.222656 141.644531 Z M 274.695312 145.347656 L 273.636719 146.40625 C 273.34375 146.695312 272.871094 146.695312 272.578125 146.40625 L 260.933594 134.761719 C 260.644531 134.472656 260.644531 133.996094 260.933594 133.703125 L 261.992188 132.644531 C 262.285156 132.355469 262.761719 132.355469 263.050781 132.644531 L 274.695312 144.289062 C 274.984375 144.582031 274.984375 145.054688 274.695312 145.347656 Z M 269.933594 146.933594 C 269.640625 147.226562 269.164062 147.226562 268.875 146.933594 L 260.40625 138.46875 C 260.113281 138.175781 260.113281 137.699219 260.40625 137.410156 C 260.699219 137.117188 261.171875 137.117188 261.464844 137.410156 L 269.933594 145.875 C 270.222656 146.167969 270.222656 146.644531 269.933594 146.933594 Z M 269.402344 150.640625 L 268.34375 151.699219 C 268.050781 151.988281 267.578125 151.988281 267.285156 151.699219 L 255.644531 140.054688 C 255.351562 139.761719 255.351562 139.289062 255.644531 138.996094 L 256.703125 137.9375 C 256.992188 137.648438 257.46875 137.648438 257.761719 137.9375 L 269.402344 149.582031 C 269.695312 149.871094 269.695312 150.347656 269.402344 150.640625 Z M 281.574219 147.992188 L 285.808594 152.226562 L 280.515625 157.519531 L 276.28125 153.285156 Z M 270.460938 162.28125 C 271.921875 163.742188 271.921875 166.113281 270.460938 167.574219 C 269 169.035156 266.628906 169.035156 265.167969 167.574219 C 263.710938 166.113281 263.710938 163.742188 265.167969 162.28125 C 266.628906 160.824219 269 160.824219 270.460938 162.28125 Z M 245.585938 147.992188 L 237.121094 139.527344 L 242.414062 134.234375 L 250.878906 142.699219 Z M 252.46875 129.46875 C 251.007812 128.011719 251.007812 125.636719 252.46875 124.179688 C 253.925781 122.71875 256.300781 122.71875 257.761719 124.179688 C 259.21875 125.636719 259.21875 128.011719 257.761719 129.46875 C 256.300781 130.929688 253.925781 130.929688 252.46875 129.46875 Z M 266.359375 118.753906 L 265.523438 112.890625 L 271.386719 113.726562 L 272.222656 119.589844 Z M 293.21875 146.933594 L 300.625 139.527344 L 290.042969 128.941406 L 286.867188 132.117188 L 284.75 130 C 283.289062 128.539062 280.917969 128.539062 279.457031 130 L 276.28125 133.175781 L 274.164062 131.058594 L 276.8125 128.410156 C 278.269531 126.953125 278.269531 124.578125 276.8125 123.121094 L 273.8125 120.121094 L 272.710938 112.402344 L 263.757812 111.125 L 265.035156 120.078125 L 272.753906 121.179688 L 275.753906 124.179688 C 276.628906 125.054688 276.628906 126.476562 275.753906 127.355469 L 273.105469 130 L 269.402344 126.296875 C 268.527344 125.417969 267.105469 125.417969 266.226562 126.296875 L 265.167969 127.355469 C 264.292969 128.230469 264.292969 129.652344 265.167969 130.527344 L 265.265625 130.625 C 265.039062 130.734375 264.824219 130.871094 264.640625 131.058594 C 264.453125 131.246094 264.316406 131.460938 264.207031 131.683594 L 264.109375 131.585938 C 263.234375 130.710938 261.8125 130.710938 260.933594 131.585938 L 259.304688 129.957031 C 260.839844 127.90625 260.679688 124.984375 258.816406 123.121094 C 256.777344 121.078125 253.453125 121.078125 251.410156 123.121094 C 249.367188 125.164062 249.367188 128.488281 251.410156 130.527344 C 253.273438 132.390625 256.195312 132.550781 258.246094 131.015625 L 259.875 132.644531 C 259 133.523438 259 134.945312 259.875 135.820312 L 259.972656 135.917969 C 259.75 136.027344 259.535156 136.164062 259.347656 136.351562 C 259.160156 136.535156 259.023438 136.75 258.914062 136.976562 L 258.816406 136.878906 C 257.941406 136.003906 256.519531 136.003906 255.644531 136.878906 L 254.585938 137.9375 C 253.707031 138.816406 253.707031 140.238281 254.585938 141.113281 L 258.289062 144.816406 L 255.113281 147.992188 C 254.238281 148.871094 252.816406 148.871094 251.9375 147.992188 L 249.820312 145.875 L 252.996094 142.699219 L 242.414062 132.117188 L 235.003906 139.527344 L 245.585938 150.109375 L 248.761719 146.933594 L 250.878906 149.050781 C 252.339844 150.511719 254.710938 150.511719 256.171875 149.050781 L 259.347656 145.875 L 261.464844 147.992188 L 258.289062 151.167969 C 256.828125 152.628906 256.828125 155 258.289062 156.460938 L 263.625 161.796875 C 262.089844 163.84375 262.246094 166.769531 264.109375 168.632812 C 266.152344 170.675781 269.476562 170.675781 271.519531 168.632812 C 273.5625 166.589844 273.5625 163.265625 271.519531 161.222656 C 269.65625 159.359375 266.730469 159.203125 264.683594 160.738281 L 259.347656 155.402344 C 258.472656 154.527344 258.472656 153.105469 259.347656 152.226562 L 262.523438 149.050781 L 266.226562 152.757812 C 267.105469 153.632812 268.527344 153.632812 269.402344 152.757812 L 270.460938 151.699219 C 271.335938 150.820312 271.335938 149.398438 270.460938 148.523438 L 270.363281 148.425781 C 270.589844 148.316406 270.804688 148.179688 270.992188 147.992188 C 271.175781 147.808594 271.3125 147.59375 271.421875 147.367188 L 271.519531 147.464844 C 272.394531 148.339844 273.816406 148.339844 274.695312 147.464844 L 277.339844 150.109375 L 274.164062 153.285156 L 280.515625 159.636719 L 287.925781 152.226562 L 281.574219 145.875 L 278.398438 149.050781 L 275.753906 146.40625 C 276.628906 145.527344 276.628906 144.105469 275.753906 143.230469 L 275.65625 143.132812 C 275.882812 143.023438 276.097656 142.886719 276.28125 142.699219 C 276.46875 142.515625 276.605469 142.300781 276.714844 142.074219 L 276.8125 142.171875 C 277.6875 143.046875 279.109375 143.046875 279.988281 142.171875 L 281.046875 141.113281 C 281.921875 140.238281 281.921875 138.816406 281.046875 137.9375 L 277.339844 134.234375 L 280.515625 131.058594 C 281.394531 130.183594 282.816406 130.183594 283.691406 131.058594 L 285.808594 133.175781 L 282.632812 136.351562 L 293.21875 146.933594 " fill-opacity="1" fill-rule="nonzero"/></g></g></g><g clip-path="url(#9d2e6d7213)"><g clip-path="url(#5b80dd3b1f)"><g clip-path="url(#cedec5ac88)"><path fill="#004aad" d="M 243.472656 137.410156 L 242.414062 136.351562 L 241.355469 137.410156 L 242.414062 138.46875 L 243.472656 137.410156 " fill-opacity="1" fill-rule="nonzero"/></g></g></g><g clip-path="url(#11db269093)"><g clip-path="url(#95e807d211)"><g clip-path="url(#a5091974ed)"><path fill="#004aad" d="M 245.585938 139.527344 L 244.53125 138.46875 L 243.472656 139.527344 L 244.53125 140.585938 L 245.585938 139.527344 " fill-opacity="1" fill-rule="nonzero"/></g></g></g><g clip-path="url(#a72f5bde8c)"><g clip-path="url(#369d79d738)"><g clip-path="url(#fcdec177d5)"><path fill="#004aad" d="M 248.761719 142.699219 L 246.644531 140.585938 L 245.585938 141.644531 L 247.703125 143.757812 L 248.761719 142.699219 " fill-opacity="1" fill-rule="nonzero"/></g></g></g><g clip-path="url(#19533b1668)"><g clip-path="url(#e8f5e7fd8e)"><g clip-path="url(#79a38b58ce)"><path fill="#004aad" d="M 246.644531 144.816406 L 240.296875 138.46875 L 239.238281 139.527344 L 245.585938 145.875 L 246.644531 144.816406 " fill-opacity="1" fill-rule="nonzero"/></g></g></g><g clip-path="url(#2eb267e5f2)"><g clip-path="url(#2c25485766)"><g clip-path="url(#6cadb219fb)"><path fill="#004aad" d="M 288.984375 134.234375 L 295.335938 140.585938 L 296.394531 139.527344 L 290.042969 133.175781 L 288.984375 134.234375 " fill-opacity="1" fill-rule="nonzero"/></g></g></g><g clip-path="url(#43b426ec39)"><g clip-path="url(#3b7ad433d5)"><g clip-path="url(#857bae69ec)"><path fill="#004aad" d="M 286.867188 136.351562 L 293.21875 142.699219 L 294.277344 141.644531 L 287.925781 135.292969 L 286.867188 136.351562 " fill-opacity="1" fill-rule="nonzero"/></g></g></g><g clip-path="url(#c21dd1b5bd)"><g clip-path="url(#8f29ff0ca4)"><g clip-path="url(#040a528a0e)"><path fill="#004aad" d="M 266.757812 115.179688 L 269.933594 118.355469 L 270.992188 117.296875 L 267.816406 114.125 L 266.757812 115.179688 " fill-opacity="1" fill-rule="nonzero"/></g></g></g><g clip-path="url(#9c7211d020)"><g clip-path="url(#639bc2ace0)"><g clip-path="url(#75c6cab252)"><path fill="#004aad" d="M 280.515625 151.167969 L 282.632812 153.285156 L 283.691406 152.226562 L 281.574219 150.109375 L 280.515625 151.167969 " fill-opacity="1" fill-rule="nonzero"/></g></g></g><g clip-path="url(#acb1ec0e6b)"><g clip-path="url(#1ff12fdadc)"><g clip-path="url(#27fb371f32)"><path fill="#004aad" d="M 278.398438 153.285156 L 280.515625 155.402344 L 281.574219 154.34375 L 279.457031 152.226562 L 278.398438 153.285156 " fill-opacity="1" fill-rule="nonzero"/></g></g></g><g clip-path="url(#6d6a50d36d)"><g clip-path="url(#5f8a7cf3cf)"><g clip-path="url(#4eacf7d624)"><path fill="#004aad" d="M 692.714844 166.515625 L 690.597656 164.398438 L 689.539062 165.457031 L 691.65625 167.574219 L 692.714844 166.515625 " fill-opacity="1" fill-rule="nonzero"/></g></g></g><g clip-path="url(#c42b28a120)"><g clip-path="url(#dfb2dc3c7f)"><g clip-path="url(#23a6996302)"><path fill="#004aad" d="M 694.832031 164.398438 L 692.714844 162.28125 L 691.65625 163.339844 L 693.773438 165.457031 L 694.832031 164.398438 " fill-opacity="1" fill-rule="nonzero"/></g></g></g><g clip-path="url(#0a7d42de56)"><g clip-path="url(#defbe3a665)"><g clip-path="url(#4b157faf01)"><path fill="#004aad" d="M 676.835938 127.355469 L 678.953125 129.46875 L 680.011719 128.410156 L 677.894531 126.296875 L 676.835938 127.355469 " fill-opacity="1" fill-rule="nonzero"/></g></g></g><g clip-path="url(#a0411ec31c)"><g clip-path="url(#8587902a0d)"><g clip-path="url(#6a68f828fa)"><path fill="#004aad" d="M 678.953125 125.238281 L 681.070312 127.355469 L 682.128906 126.296875 L 680.011719 124.179688 L 678.953125 125.238281 " fill-opacity="1" fill-rule="nonzero"/></g></g></g><g clip-path="url(#442365412e)"><g clip-path="url(#c7c9ff34b5)"><g clip-path="url(#b1c91d6773)"><path fill="#004aad" d="M 714.410156 131.058594 L 722.878906 139.527344 L 717.585938 144.816406 L 709.121094 136.351562 Z M 704.355469 140.054688 L 703.296875 141.113281 C 703.007812 141.40625 702.53125 141.40625 702.238281 141.113281 L 690.597656 129.46875 C 690.304688 129.179688 690.304688 128.703125 690.597656 128.410156 L 691.65625 127.355469 C 691.945312 127.0625 692.421875 127.0625 692.714844 127.355469 L 704.355469 138.996094 C 704.648438 139.289062 704.648438 139.761719 704.355469 140.054688 Z M 699.59375 141.644531 C 699.300781 141.933594 698.828125 141.933594 698.535156 141.644531 L 690.066406 133.175781 C 689.777344 132.882812 689.777344 132.40625 690.066406 132.117188 C 690.359375 131.824219 690.835938 131.824219 691.125 132.117188 L 699.59375 140.585938 C 699.886719 140.875 699.886719 141.351562 699.59375 141.644531 Z M 699.0625 145.347656 L 698.003906 146.40625 C 697.714844 146.695312 697.238281 146.695312 696.949219 146.40625 L 685.304688 134.761719 C 685.011719 134.472656 685.011719 133.996094 685.304688 133.703125 L 686.363281 132.644531 C 686.65625 132.355469 687.128906 132.355469 687.421875 132.644531 L 699.0625 144.289062 C 699.355469 144.582031 699.355469 145.054688 699.0625 145.347656 Z M 694.300781 146.933594 C 694.007812 147.226562 693.535156 147.226562 693.242188 146.933594 L 684.773438 138.46875 C 684.484375 138.175781 684.484375 137.699219 684.773438 137.410156 C 685.066406 137.117188 685.542969 137.117188 685.832031 137.410156 L 694.300781 145.875 C 694.59375 146.167969 694.59375 146.644531 694.300781 146.933594 Z M 693.773438 150.640625 L 692.714844 151.699219 C 692.421875 151.988281 691.945312 151.988281 691.65625 151.699219 L 680.011719 140.054688 C 679.722656 139.761719 679.722656 139.289062 680.011719 138.996094 L 681.070312 137.9375 C 681.363281 137.648438 681.835938 137.648438 682.128906 137.9375 L 693.773438 149.582031 C 694.0625 149.871094 694.0625 150.347656 693.773438 150.640625 Z M 705.945312 147.992188 L 710.179688 152.226562 L 704.886719 157.519531 L 700.652344 153.285156 Z M 694.832031 162.28125 C 696.289062 163.742188 696.289062 166.113281 694.832031 167.574219 C 693.371094 169.035156 690.996094 169.035156 689.539062 167.574219 C 688.078125 166.113281 688.078125 163.742188 689.539062 162.28125 C 690.996094 160.824219 693.371094 160.824219 694.832031 162.28125 Z M 669.957031 147.992188 L 661.488281 139.527344 L 666.78125 134.234375 L 675.25 142.699219 Z M 676.835938 129.46875 C 675.378906 128.011719 675.378906 125.636719 676.835938 124.179688 C 678.296875 122.71875 680.667969 122.71875 682.128906 124.179688 C 683.589844 125.636719 683.589844 128.011719 682.128906 129.46875 C 680.667969 130.929688 678.296875 130.929688 676.835938 129.46875 Z M 690.730469 118.753906 L 689.890625 112.890625 L 695.757812 113.726562 L 696.59375 119.589844 Z M 717.585938 146.933594 L 724.996094 139.527344 L 714.410156 128.941406 L 711.234375 132.117188 L 709.121094 130 C 707.660156 128.539062 705.285156 128.539062 703.828125 130 L 700.652344 133.175781 L 698.535156 131.058594 L 701.179688 128.410156 C 702.640625 126.953125 702.640625 124.578125 701.179688 123.121094 L 698.183594 120.121094 L 697.078125 112.402344 L 688.125 111.125 L 689.40625 120.078125 L 697.125 121.179688 L 700.121094 124.179688 C 701 125.054688 701 126.476562 700.121094 127.355469 L 697.476562 130 L 693.773438 126.296875 C 692.894531 125.417969 691.472656 125.417969 690.597656 126.296875 L 689.539062 127.355469 C 688.660156 128.230469 688.660156 129.652344 689.539062 130.527344 L 689.636719 130.625 C 689.410156 130.734375 689.195312 130.871094 689.007812 131.058594 C 688.824219 131.246094 688.6875 131.460938 688.578125 131.683594 L 688.480469 131.585938 C 687.601562 130.710938 686.179688 130.710938 685.304688 131.585938 L 683.671875 129.957031 C 685.210938 127.90625 685.050781 124.984375 683.1875 123.121094 C 681.144531 121.078125 677.820312 121.078125 675.777344 123.121094 C 673.734375 125.164062 673.734375 128.488281 675.777344 130.527344 C 677.640625 132.390625 680.566406 132.550781 682.613281 131.015625 L 684.246094 132.644531 C 683.371094 133.523438 683.371094 134.945312 684.246094 135.820312 L 684.34375 135.917969 C 684.117188 136.027344 683.902344 136.164062 683.71875 136.351562 C 683.53125 136.535156 683.394531 136.75 683.285156 136.976562 L 683.1875 136.878906 C 682.3125 136.003906 680.890625 136.003906 680.011719 136.878906 L 678.953125 137.9375 C 678.078125 138.816406 678.078125 140.238281 678.953125 141.113281 L 682.660156 144.816406 L 679.484375 147.992188 C 678.605469 148.871094 677.183594 148.871094 676.308594 147.992188 L 674.191406 145.875 L 677.367188 142.699219 L 666.78125 132.117188 L 659.371094 139.527344 L 669.957031 150.109375 L 673.132812 146.933594 L 675.25 149.050781 C 676.707031 150.511719 679.082031 150.511719 680.542969 149.050781 L 683.71875 145.875 L 685.832031 147.992188 L 682.660156 151.167969 C 681.199219 152.628906 681.199219 155 682.660156 156.460938 L 687.992188 161.796875 C 686.457031 163.84375 686.617188 166.769531 688.480469 168.632812 C 690.523438 170.675781 693.847656 170.675781 695.890625 168.632812 C 697.929688 166.589844 697.929688 163.265625 695.890625 161.222656 C 694.027344 159.359375 691.101562 159.203125 689.050781 160.738281 L 683.71875 155.402344 C 682.839844 154.527344 682.839844 153.105469 683.71875 152.226562 L 686.890625 149.050781 L 690.597656 152.757812 C 691.472656 153.632812 692.894531 153.632812 693.773438 152.757812 L 694.832031 151.699219 C 695.707031 150.820312 695.707031 149.398438 694.832031 148.523438 L 694.734375 148.425781 C 694.957031 148.316406 695.171875 148.179688 695.359375 147.992188 C 695.546875 147.808594 695.683594 147.59375 695.792969 147.367188 L 695.890625 147.464844 C 696.765625 148.339844 698.1875 148.339844 699.0625 147.464844 L 701.710938 150.109375 L 698.535156 153.285156 L 704.886719 159.636719 L 712.292969 152.226562 L 705.945312 145.875 L 702.769531 149.050781 L 700.121094 146.40625 C 701 145.527344 701 144.105469 700.121094 143.230469 L 700.027344 143.132812 C 700.25 143.023438 700.464844 142.886719 700.652344 142.699219 C 700.839844 142.515625 700.972656 142.300781 701.082031 142.074219 L 701.179688 142.171875 C 702.058594 143.046875 703.480469 143.046875 704.355469 142.171875 L 705.414062 141.113281 C 706.292969 140.238281 706.292969 138.816406 705.414062 137.9375 L 701.710938 134.234375 L 704.886719 131.058594 C 705.761719 130.183594 707.183594 130.183594 708.0625 131.058594 L 710.179688 133.175781 L 707.003906 136.351562 L 717.585938 146.933594 " fill-opacity="1" fill-rule="nonzero"/></g></g></g><g clip-path="url(#2de07366db)"><g clip-path="url(#6b676bbd13)"><g clip-path="url(#d5703cc319)"><path fill="#004aad" d="M 667.839844 137.410156 L 666.78125 136.351562 L 665.722656 137.410156 L 666.78125 138.46875 L 667.839844 137.410156 " fill-opacity="1" fill-rule="nonzero"/></g></g></g><g clip-path="url(#c2a99737c6)"><g clip-path="url(#e20009a284)"><g clip-path="url(#ebf264cbf2)"><path fill="#004aad" d="M 669.957031 139.527344 L 668.898438 138.46875 L 667.839844 139.527344 L 668.898438 140.585938 L 669.957031 139.527344 " fill-opacity="1" fill-rule="nonzero"/></g></g></g><g clip-path="url(#96c361b180)"><g clip-path="url(#5764c04275)"><g clip-path="url(#59fde7de63)"><path fill="#004aad" d="M 673.132812 142.699219 L 671.015625 140.585938 L 669.957031 141.644531 L 672.074219 143.757812 L 673.132812 142.699219 " fill-opacity="1" fill-rule="nonzero"/></g></g></g><g clip-path="url(#5617a2a7ce)"><g clip-path="url(#bd8d643400)"><g clip-path="url(#5e24d68898)"><path fill="#004aad" d="M 671.015625 144.816406 L 664.664062 138.46875 L 663.605469 139.527344 L 669.957031 145.875 L 671.015625 144.816406 " fill-opacity="1" fill-rule="nonzero"/></g></g></g><g clip-path="url(#3bc012b91f)"><g clip-path="url(#276ec8073d)"><g clip-path="url(#fe08ce166d)"><path fill="#004aad" d="M 713.351562 134.234375 L 719.703125 140.585938 L 720.761719 139.527344 L 714.410156 133.175781 L 713.351562 134.234375 " fill-opacity="1" fill-rule="nonzero"/></g></g></g><g clip-path="url(#02e01276e8)"><g clip-path="url(#aae6cc57c5)"><g clip-path="url(#41336f8f8e)"><path fill="#004aad" d="M 711.234375 136.351562 L 717.585938 142.699219 L 718.644531 141.644531 L 712.292969 135.292969 L 711.234375 136.351562 " fill-opacity="1" fill-rule="nonzero"/></g></g></g><g clip-path="url(#7308c6a8e6)"><g clip-path="url(#9df012477f)"><g clip-path="url(#7b4f46fc6a)"><path fill="#004aad" d="M 691.125 115.179688 L 694.300781 118.355469 L 695.359375 117.296875 L 692.183594 114.125 L 691.125 115.179688 " fill-opacity="1" fill-rule="nonzero"/></g></g></g><g clip-path="url(#e3b546f1ec)"><g clip-path="url(#6909a4af99)"><g clip-path="url(#6cd2ee18a0)"><path fill="#004aad" d="M 704.886719 151.167969 L 707.003906 153.285156 L 708.0625 152.226562 L 705.945312 150.109375 L 704.886719 151.167969 " fill-opacity="1" fill-rule="nonzero"/></g></g></g><g clip-path="url(#71f2cc8f7c)"><g clip-path="url(#15e89029d3)"><g clip-path="url(#974a756034)"><path fill="#004aad" d="M 702.769531 153.285156 L 704.886719 155.402344 L 705.945312 154.34375 L 703.828125 152.226562 L 702.769531 153.285156 " fill-opacity="1" fill-rule="nonzero"/></g></g></g><g fill="#004aad" fill-opacity="1"><g transform="translate(17.370478, 368.907212)"><g><path d="M 18.796875 0 L 16.328125 0 L 16.3125 -11.8125 L 11.3125 -1.65625 L 9.578125 -1.65625 L 4.59375 -11.8125 L 4.59375 0 L 2.078125 0 L 2.078125 -15.8125 L 5.234375 -15.8125 L 10.453125 -5.3125 L 15.65625 -15.8125 L 18.796875 -15.8125 Z M 18.796875 0 "/></g></g></g><g fill="#004aad" fill-opacity="1"><g transform="translate(40.521271, 368.907212)"><g><path d="M 11.3125 -19.75 L 8.5625 -17.53125 L 6.265625 -17.53125 L 8.65625 -20.875 Z M 13.375 -13.421875 L 4.75 -13.421875 L 4.75 -9.15625 L 12.46875 -9.15625 L 12.46875 -6.75 L 4.75 -6.75 L 4.75 -2.390625 L 13.640625 -2.390625 L 13.640625 0 L 2.078125 0 L 2.078125 -15.8125 L 13.375 -15.8125 Z M 13.375 -13.421875 "/></g></g></g><g fill="#004aad" fill-opacity="1"><g transform="translate(57.596627, 368.907212)"><g><path d="M 12.875 -13.421875 L 7.859375 -13.421875 L 7.859375 0 L 5.203125 0 L 5.203125 -13.421875 L 0.203125 -13.421875 L 0.203125 -15.8125 L 12.875 -15.8125 Z M 12.875 -13.421875 "/></g></g></g><g fill="#004aad" fill-opacity="1"><g transform="translate(72.932921, 368.907212)"><g><path d="M 3.1875 -13.59375 C 4.800781 -15.125 6.789062 -15.890625 9.15625 -15.890625 C 11.519531 -15.890625 13.503906 -15.125 15.109375 -13.59375 C 16.722656 -12.0625 17.53125 -10.164062 17.53125 -7.90625 C 17.53125 -5.644531 16.722656 -3.742188 15.109375 -2.203125 C 13.503906 -0.660156 11.519531 0.109375 9.15625 0.109375 C 6.789062 0.109375 4.800781 -0.660156 3.1875 -2.203125 C 1.570312 -3.742188 0.765625 -5.644531 0.765625 -7.90625 C 0.765625 -10.164062 1.570312 -12.0625 3.1875 -13.59375 Z M 9.171875 -13.484375 C 7.609375 -13.484375 6.269531 -12.941406 5.15625 -11.859375 C 4.039062 -10.785156 3.484375 -9.46875 3.484375 -7.90625 C 3.484375 -6.34375 4.039062 -5.015625 5.15625 -3.921875 C 6.28125 -2.828125 7.617188 -2.28125 9.171875 -2.28125 C 10.722656 -2.28125 12.046875 -2.828125 13.140625 -3.921875 C 14.242188 -5.015625 14.796875 -6.34375 14.796875 -7.90625 C 14.796875 -9.46875 14.242188 -10.785156 13.140625 -11.859375 C 12.046875 -12.941406 10.722656 -13.484375 9.171875 -13.484375 Z M 9.171875 -13.484375 "/></g></g></g><g fill="#004aad" fill-opacity="1"><g transform="translate(93.486418, 368.907212)"><g><path d="M 2.078125 -15.8125 L 8.5625 -15.8125 C 10.925781 -15.8125 12.878906 -15.066406 14.421875 -13.578125 C 15.960938 -12.085938 16.734375 -10.195312 16.734375 -7.90625 C 16.734375 -5.613281 15.957031 -3.722656 14.40625 -2.234375 C 12.863281 -0.742188 10.894531 0 8.5 0 L 2.078125 0 Z M 4.75 -13.421875 L 4.75 -2.390625 L 8.625 -2.390625 C 10.175781 -2.390625 11.46875 -2.90625 12.5 -3.9375 C 13.53125 -4.96875 14.046875 -6.28125 14.046875 -7.875 C 14.046875 -9.476562 13.515625 -10.800781 12.453125 -11.84375 C 11.398438 -12.894531 10.085938 -13.421875 8.515625 -13.421875 Z M 4.75 -13.421875 "/></g></g></g><g fill="#004aad" fill-opacity="1"><g transform="translate(113.249425, 368.907212)"><g><path d="M 3.1875 -13.59375 C 4.800781 -15.125 6.789062 -15.890625 9.15625 -15.890625 C 11.519531 -15.890625 13.503906 -15.125 15.109375 -13.59375 C 16.722656 -12.0625 17.53125 -10.164062 17.53125 -7.90625 C 17.53125 -5.644531 16.722656 -3.742188 15.109375 -2.203125 C 13.503906 -0.660156 11.519531 0.109375 9.15625 0.109375 C 6.789062 0.109375 4.800781 -0.660156 3.1875 -2.203125 C 1.570312 -3.742188 0.765625 -5.644531 0.765625 -7.90625 C 0.765625 -10.164062 1.570312 -12.0625 3.1875 -13.59375 Z M 9.171875 -13.484375 C 7.609375 -13.484375 6.269531 -12.941406 5.15625 -11.859375 C 4.039062 -10.785156 3.484375 -9.46875 3.484375 -7.90625 C 3.484375 -6.34375 4.039062 -5.015625 5.15625 -3.921875 C 6.28125 -2.828125 7.617188 -2.28125 9.171875 -2.28125 C 10.722656 -2.28125 12.046875 -2.828125 13.140625 -3.921875 C 14.242188 -5.015625 14.796875 -6.34375 14.796875 -7.90625 C 14.796875 -9.46875 14.242188 -10.785156 13.140625 -11.859375 C 12.046875 -12.941406 10.722656 -13.484375 9.171875 -13.484375 Z M 9.171875 -13.484375 "/></g></g></g><g fill="#004aad" fill-opacity="1"><g transform="translate(133.802922, 368.907212)"><g><path d="M 7.28125 -15.921875 C 9.320312 -15.921875 11.164062 -15.378906 12.8125 -14.296875 L 11.703125 -11.953125 C 10.085938 -12.929688 8.546875 -13.421875 7.078125 -13.421875 C 6.273438 -13.421875 5.644531 -13.273438 5.1875 -12.984375 C 4.726562 -12.703125 4.5 -12.296875 4.5 -11.765625 C 4.5 -11.242188 4.707031 -10.796875 5.125 -10.421875 C 5.550781 -10.054688 6.078125 -9.785156 6.703125 -9.609375 C 7.335938 -9.441406 8.023438 -9.222656 8.765625 -8.953125 C 9.503906 -8.691406 10.1875 -8.414062 10.8125 -8.125 C 11.445312 -7.832031 11.972656 -7.375 12.390625 -6.75 C 12.804688 -6.125 13.015625 -5.363281 13.015625 -4.46875 C 13.015625 -3.082031 12.457031 -1.972656 11.34375 -1.140625 C 10.238281 -0.316406 8.804688 0.09375 7.046875 0.09375 C 5.835938 0.09375 4.671875 -0.128906 3.546875 -0.578125 C 2.421875 -1.035156 1.4375 -1.648438 0.59375 -2.421875 L 1.734375 -4.71875 C 2.535156 -3.976562 3.414062 -3.410156 4.375 -3.015625 C 5.332031 -2.617188 6.238281 -2.421875 7.09375 -2.421875 C 8.03125 -2.421875 8.753906 -2.585938 9.265625 -2.921875 C 9.785156 -3.265625 10.046875 -3.738281 10.046875 -4.34375 C 10.046875 -4.882812 9.832031 -5.335938 9.40625 -5.703125 C 8.988281 -6.078125 8.460938 -6.347656 7.828125 -6.515625 C 7.203125 -6.691406 6.519531 -6.90625 5.78125 -7.15625 C 5.039062 -7.40625 4.351562 -7.664062 3.71875 -7.9375 C 3.09375 -8.21875 2.566406 -8.664062 2.140625 -9.28125 C 1.722656 -9.90625 1.515625 -10.648438 1.515625 -11.515625 C 1.515625 -12.859375 2.039062 -13.925781 3.09375 -14.71875 C 4.144531 -15.519531 5.539062 -15.921875 7.28125 -15.921875 Z M 7.28125 -15.921875 "/></g></g></g><g fill="#004aad" fill-opacity="1"><g transform="translate(150.11038, 368.907212)"><g><path d="M 2.46875 -2.734375 C 2.84375 -2.734375 3.164062 -2.597656 3.4375 -2.328125 C 3.707031 -2.066406 3.84375 -1.71875 3.84375 -1.28125 C 3.84375 -0.875 3.707031 -0.476562 3.4375 -0.09375 L 2.140625 1.859375 L 0.8125 1.859375 L 1.671875 -0.109375 C 1.265625 -0.378906 1.0625 -0.769531 1.0625 -1.28125 C 1.0625 -1.707031 1.191406 -2.054688 1.453125 -2.328125 C 1.722656 -2.597656 2.0625 -2.734375 2.46875 -2.734375 Z M 2.46875 -2.734375 "/></g></g></g><g fill="#004aad" fill-opacity="1"><g transform="translate(157.20303, 368.907212)"><g/></g></g><g fill="#004aad" fill-opacity="1"><g transform="translate(165.289438, 368.907212)"><g><path d="M 12.671875 -13.421875 L 4.75 -13.421875 L 4.75 -8.859375 L 11.921875 -8.859375 L 11.921875 -6.484375 L 4.75 -6.484375 L 4.75 0 L 2.078125 0 L 2.078125 -15.8125 L 12.703125 -15.8125 Z M 12.671875 -13.421875 "/></g></g></g><g fill="#004aad" fill-opacity="1"><g transform="translate(180.535377, 368.907212)"><g><path d="M 13.375 -13.421875 L 4.75 -13.421875 L 4.75 -9.15625 L 12.46875 -9.15625 L 12.46875 -6.75 L 4.75 -6.75 L 4.75 -2.390625 L 13.640625 -2.390625 L 13.640625 0 L 2.078125 0 L 2.078125 -15.8125 L 13.375 -15.8125 Z M 13.375 -13.421875 "/></g></g></g><g fill="#004aad" fill-opacity="1"><g transform="translate(197.610723, 368.907212)"><g><path d="M 12.109375 0 L 9.21875 -4.796875 C 9.070312 -4.773438 8.832031 -4.765625 8.5 -4.765625 L 4.75 -4.765625 L 4.75 0 L 2.078125 0 L 2.078125 -15.8125 L 8.5 -15.8125 C 10.507812 -15.8125 12.070312 -15.335938 13.1875 -14.390625 C 14.300781 -13.453125 14.859375 -12.128906 14.859375 -10.421875 C 14.859375 -9.148438 14.578125 -8.078125 14.015625 -7.203125 C 13.453125 -6.328125 12.644531 -5.6875 11.59375 -5.28125 L 15.140625 0 Z M 4.75 -7.15625 L 8.5 -7.15625 C 11.0625 -7.15625 12.34375 -8.21875 12.34375 -10.34375 C 12.34375 -12.394531 11.0625 -13.421875 8.5 -13.421875 L 4.75 -13.421875 Z M 4.75 -7.15625 "/></g></g></g><g fill="#004aad" fill-opacity="1"><g transform="translate(216.19929, 368.907212)"><g><path d="M 12.109375 0 L 9.21875 -4.796875 C 9.070312 -4.773438 8.832031 -4.765625 8.5 -4.765625 L 4.75 -4.765625 L 4.75 0 L 2.078125 0 L 2.078125 -15.8125 L 8.5 -15.8125 C 10.507812 -15.8125 12.070312 -15.335938 13.1875 -14.390625 C 14.300781 -13.453125 14.859375 -12.128906 14.859375 -10.421875 C 14.859375 -9.148438 14.578125 -8.078125 14.015625 -7.203125 C 13.453125 -6.328125 12.644531 -5.6875 11.59375 -5.28125 L 15.140625 0 Z M 4.75 -7.15625 L 8.5 -7.15625 C 11.0625 -7.15625 12.34375 -8.21875 12.34375 -10.34375 C 12.34375 -12.394531 11.0625 -13.421875 8.5 -13.421875 L 4.75 -13.421875 Z M 4.75 -7.15625 "/></g></g></g><g fill="#004aad" fill-opacity="1"><g transform="translate(234.787856, 368.907212)"><g><path d="M 12.296875 -3.5625 L 4.3125 -3.5625 L 2.796875 0 L 0.015625 0 L 7 -15.8125 L 9.734375 -15.8125 L 16.65625 0 L 13.8125 0 Z M 11.28125 -5.9375 L 8.296875 -12.96875 L 5.3125 -5.9375 Z M 11.28125 -5.9375 "/></g></g></g><g fill="#004aad" fill-opacity="1"><g transform="translate(253.715194, 368.907212)"><g><path d="M 18.796875 0 L 16.328125 0 L 16.3125 -11.8125 L 11.3125 -1.65625 L 9.578125 -1.65625 L 4.59375 -11.8125 L 4.59375 0 L 2.078125 0 L 2.078125 -15.8125 L 5.234375 -15.8125 L 10.453125 -5.3125 L 15.65625 -15.8125 L 18.796875 -15.8125 Z M 18.796875 0 "/></g></g></g><g fill="#004aad" fill-opacity="1"><g transform="translate(276.865997, 368.907212)"><g><path d="M 13.375 -13.421875 L 4.75 -13.421875 L 4.75 -9.15625 L 12.46875 -9.15625 L 12.46875 -6.75 L 4.75 -6.75 L 4.75 -2.390625 L 13.640625 -2.390625 L 13.640625 0 L 2.078125 0 L 2.078125 -15.8125 L 13.375 -15.8125 Z M 13.375 -13.421875 "/></g></g></g><g fill="#004aad" fill-opacity="1"><g transform="translate(293.941343, 368.907212)"><g><path d="M 15.796875 0 L 13.171875 0 L 4.75 -11.34375 L 4.75 0 L 2.078125 0 L 2.078125 -15.8125 L 4.703125 -15.8125 L 13.171875 -4.453125 L 13.171875 -15.8125 L 15.796875 -15.8125 Z M 15.796875 0 "/></g></g></g><g fill="#004aad" fill-opacity="1"><g transform="translate(314.088317, 368.907212)"><g><path d="M 12.875 -13.421875 L 7.859375 -13.421875 L 7.859375 0 L 5.203125 0 L 5.203125 -13.421875 L 0.203125 -13.421875 L 0.203125 -15.8125 L 12.875 -15.8125 Z M 12.875 -13.421875 "/></g></g></g><g fill="#004aad" fill-opacity="1"><g transform="translate(329.42462, 368.907212)"><g><path d="M 12.296875 -3.5625 L 4.3125 -3.5625 L 2.796875 0 L 0.015625 0 L 7 -15.8125 L 9.734375 -15.8125 L 16.65625 0 L 13.8125 0 Z M 11.28125 -5.9375 L 8.296875 -12.96875 L 5.3125 -5.9375 Z M 11.28125 -5.9375 "/></g></g></g><g fill="#004aad" fill-opacity="1"><g transform="translate(348.351958, 368.907212)"><g><path d="M 7.28125 -15.921875 C 9.320312 -15.921875 11.164062 -15.378906 12.8125 -14.296875 L 11.703125 -11.953125 C 10.085938 -12.929688 8.546875 -13.421875 7.078125 -13.421875 C 6.273438 -13.421875 5.644531 -13.273438 5.1875 -12.984375 C 4.726562 -12.703125 4.5 -12.296875 4.5 -11.765625 C 4.5 -11.242188 4.707031 -10.796875 5.125 -10.421875 C 5.550781 -10.054688 6.078125 -9.785156 6.703125 -9.609375 C 7.335938 -9.441406 8.023438 -9.222656 8.765625 -8.953125 C 9.503906 -8.691406 10.1875 -8.414062 10.8125 -8.125 C 11.445312 -7.832031 11.972656 -7.375 12.390625 -6.75 C 12.804688 -6.125 13.015625 -5.363281 13.015625 -4.46875 C 13.015625 -3.082031 12.457031 -1.972656 11.34375 -1.140625 C 10.238281 -0.316406 8.804688 0.09375 7.046875 0.09375 C 5.835938 0.09375 4.671875 -0.128906 3.546875 -0.578125 C 2.421875 -1.035156 1.4375 -1.648438 0.59375 -2.421875 L 1.734375 -4.71875 C 2.535156 -3.976562 3.414062 -3.410156 4.375 -3.015625 C 5.332031 -2.617188 6.238281 -2.421875 7.09375 -2.421875 C 8.03125 -2.421875 8.753906 -2.585938 9.265625 -2.921875 C 9.785156 -3.265625 10.046875 -3.738281 10.046875 -4.34375 C 10.046875 -4.882812 9.832031 -5.335938 9.40625 -5.703125 C 8.988281 -6.078125 8.460938 -6.347656 7.828125 -6.515625 C 7.203125 -6.691406 6.519531 -6.90625 5.78125 -7.15625 C 5.039062 -7.40625 4.351562 -7.664062 3.71875 -7.9375 C 3.09375 -8.21875 2.566406 -8.664062 2.140625 -9.28125 C 1.722656 -9.90625 1.515625 -10.648438 1.515625 -11.515625 C 1.515625 -12.859375 2.039062 -13.925781 3.09375 -14.71875 C 4.144531 -15.519531 5.539062 -15.921875 7.28125 -15.921875 Z M 7.28125 -15.921875 "/></g></g></g><g fill="#004aad" fill-opacity="1"><g transform="translate(364.659425, 368.907212)"><g/></g></g><g fill="#004aad" fill-opacity="1"><g transform="translate(372.745824, 368.907212)"><g><path d="M 13.375 -13.421875 L 4.75 -13.421875 L 4.75 -9.15625 L 12.46875 -9.15625 L 12.46875 -6.75 L 4.75 -6.75 L 4.75 -2.390625 L 13.640625 -2.390625 L 13.640625 0 L 2.078125 0 L 2.078125 -15.8125 L 13.375 -15.8125 Z M 13.375 -13.421875 "/></g></g></g><g fill="#004aad" fill-opacity="1"><g transform="translate(389.82117, 368.907212)"><g/></g></g><g fill="#004aad" fill-opacity="1"><g transform="translate(397.907568, 368.907212)"><g><path d="M 15.796875 0 L 13.125 0 L 13.125 -6.546875 L 4.75 -6.546875 L 4.75 0 L 2.078125 0 L 2.078125 -15.8125 L 4.75 -15.8125 L 4.75 -8.953125 L 13.125 -8.953125 L 13.125 -15.8125 L 15.796875 -15.8125 Z M 15.796875 0 "/></g></g></g><g fill="#004aad" fill-opacity="1"><g transform="translate(418.03193, 368.907212)"><g><path d="M 13.375 -13.421875 L 4.75 -13.421875 L 4.75 -9.15625 L 12.46875 -9.15625 L 12.46875 -6.75 L 4.75 -6.75 L 4.75 -2.390625 L 13.640625 -2.390625 L 13.640625 0 L 2.078125 0 L 2.078125 -15.8125 L 13.375 -15.8125 Z M 13.375 -13.421875 "/></g></g></g><g fill="#004aad" fill-opacity="1"><g transform="translate(435.107276, 368.907212)"><g><path d="M 18.796875 0 L 16.328125 0 L 16.3125 -11.8125 L 11.3125 -1.65625 L 9.578125 -1.65625 L 4.59375 -11.8125 L 4.59375 0 L 2.078125 0 L 2.078125 -15.8125 L 5.234375 -15.8125 L 10.453125 -5.3125 L 15.65625 -15.8125 L 18.796875 -15.8125 Z M 18.796875 0 "/></g></g></g><g fill="#004aad" fill-opacity="1"><g transform="translate(458.258079, 368.907212)"><g><path d="M 13.375 -13.421875 L 4.75 -13.421875 L 4.75 -9.15625 L 12.46875 -9.15625 L 12.46875 -6.75 L 4.75 -6.75 L 4.75 -2.390625 L 13.640625 -2.390625 L 13.640625 0 L 2.078125 0 L 2.078125 -15.8125 L 13.375 -15.8125 Z M 13.375 -13.421875 "/></g></g></g><g fill="#004aad" fill-opacity="1"><g transform="translate(475.333425, 368.907212)"><g><path d="M 12.109375 0 L 9.21875 -4.796875 C 9.070312 -4.773438 8.832031 -4.765625 8.5 -4.765625 L 4.75 -4.765625 L 4.75 0 L 2.078125 0 L 2.078125 -15.8125 L 8.5 -15.8125 C 10.507812 -15.8125 12.070312 -15.335938 13.1875 -14.390625 C 14.300781 -13.453125 14.859375 -12.128906 14.859375 -10.421875 C 14.859375 -9.148438 14.578125 -8.078125 14.015625 -7.203125 C 13.453125 -6.328125 12.644531 -5.6875 11.59375 -5.28125 L 15.140625 0 Z M 4.75 -7.15625 L 8.5 -7.15625 C 11.0625 -7.15625 12.34375 -8.21875 12.34375 -10.34375 C 12.34375 -12.394531 11.0625 -13.421875 8.5 -13.421875 L 4.75 -13.421875 Z M 4.75 -7.15625 "/></g></g></g><g fill="#004aad" fill-opacity="1"><g transform="translate(493.921992, 368.907212)"><g><path d="M 3.1875 -13.59375 C 4.800781 -15.125 6.789062 -15.890625 9.15625 -15.890625 C 11.519531 -15.890625 13.503906 -15.125 15.109375 -13.59375 C 16.722656 -12.0625 17.53125 -10.164062 17.53125 -7.90625 C 17.53125 -5.644531 16.722656 -3.742188 15.109375 -2.203125 C 13.503906 -0.660156 11.519531 0.109375 9.15625 0.109375 C 6.789062 0.109375 4.800781 -0.660156 3.1875 -2.203125 C 1.570312 -3.742188 0.765625 -5.644531 0.765625 -7.90625 C 0.765625 -10.164062 1.570312 -12.0625 3.1875 -13.59375 Z M 9.171875 -13.484375 C 7.609375 -13.484375 6.269531 -12.941406 5.15625 -11.859375 C 4.039062 -10.785156 3.484375 -9.46875 3.484375 -7.90625 C 3.484375 -6.34375 4.039062 -5.015625 5.15625 -3.921875 C 6.28125 -2.828125 7.617188 -2.28125 9.171875 -2.28125 C 10.722656 -2.28125 12.046875 -2.828125 13.140625 -3.921875 C 14.242188 -5.015625 14.796875 -6.34375 14.796875 -7.90625 C 14.796875 -9.46875 14.242188 -10.785156 13.140625 -11.859375 C 12.046875 -12.941406 10.722656 -13.484375 9.171875 -13.484375 Z M 9.171875 -13.484375 "/></g></g></g><g fill="#004aad" fill-opacity="1"><g transform="translate(514.475499, 368.907212)"><g><path d="M 12.875 -13.421875 L 7.859375 -13.421875 L 7.859375 0 L 5.203125 0 L 5.203125 -13.421875 L 0.203125 -13.421875 L 0.203125 -15.8125 L 12.875 -15.8125 Z M 12.875 -13.421875 "/></g></g></g><g fill="#004aad" fill-opacity="1"><g transform="translate(529.811802, 368.907212)"><g><path d="M 13.375 -13.421875 L 4.75 -13.421875 L 4.75 -9.15625 L 12.46875 -9.15625 L 12.46875 -6.75 L 4.75 -6.75 L 4.75 -2.390625 L 13.640625 -2.390625 L 13.640625 0 L 2.078125 0 L 2.078125 -15.8125 L 13.375 -15.8125 Z M 13.375 -13.421875 "/></g></g></g><g fill="#004aad" fill-opacity="1"><g transform="translate(546.887149, 368.907212)"><g><path d="M 9.078125 -15.890625 C 10.191406 -15.890625 11.28125 -15.671875 12.34375 -15.234375 C 13.40625 -14.804688 14.320312 -14.207031 15.09375 -13.4375 L 13.53125 -11.5 C 12.957031 -12.113281 12.28125 -12.601562 11.5 -12.96875 C 10.71875 -13.332031 9.925781 -13.515625 9.125 -13.515625 C 7.539062 -13.515625 6.203125 -12.972656 5.109375 -11.890625 C 4.023438 -10.816406 3.484375 -9.503906 3.484375 -7.953125 C 3.484375 -6.390625 4.023438 -5.066406 5.109375 -3.984375 C 6.203125 -2.910156 7.539062 -2.375 9.125 -2.375 C 10.769531 -2.375 12.238281 -3 13.53125 -4.25 L 15.109375 -2.484375 C 14.296875 -1.679688 13.347656 -1.046875 12.265625 -0.578125 C 11.179688 -0.117188 10.09375 0.109375 9 0.109375 C 6.675781 0.109375 4.722656 -0.660156 3.140625 -2.203125 C 1.554688 -3.742188 0.765625 -5.65625 0.765625 -7.9375 C 0.765625 -10.175781 1.566406 -12.0625 3.171875 -13.59375 C 4.773438 -15.125 6.742188 -15.890625 9.078125 -15.890625 Z M 9.078125 -15.890625 "/></g></g></g><g fill="#004aad" fill-opacity="1"><g transform="translate(564.888509, 368.907212)"><g><path d="M 12.296875 -3.5625 L 4.3125 -3.5625 L 2.796875 0 L 0.015625 0 L 7 -15.8125 L 9.734375 -15.8125 L 16.65625 0 L 13.8125 0 Z M 11.28125 -5.9375 L 8.296875 -12.96875 L 5.3125 -5.9375 Z M 11.28125 -5.9375 "/></g></g></g><g fill="#004aad" fill-opacity="1"><g transform="translate(583.815847, 368.907212)"><g><path d="M 7.28125 -15.921875 C 9.320312 -15.921875 11.164062 -15.378906 12.8125 -14.296875 L 11.703125 -11.953125 C 10.085938 -12.929688 8.546875 -13.421875 7.078125 -13.421875 C 6.273438 -13.421875 5.644531 -13.273438 5.1875 -12.984375 C 4.726562 -12.703125 4.5 -12.296875 4.5 -11.765625 C 4.5 -11.242188 4.707031 -10.796875 5.125 -10.421875 C 5.550781 -10.054688 6.078125 -9.785156 6.703125 -9.609375 C 7.335938 -9.441406 8.023438 -9.222656 8.765625 -8.953125 C 9.503906 -8.691406 10.1875 -8.414062 10.8125 -8.125 C 11.445312 -7.832031 11.972656 -7.375 12.390625 -6.75 C 12.804688 -6.125 13.015625 -5.363281 13.015625 -4.46875 C 13.015625 -3.082031 12.457031 -1.972656 11.34375 -1.140625 C 10.238281 -0.316406 8.804688 0.09375 7.046875 0.09375 C 5.835938 0.09375 4.671875 -0.128906 3.546875 -0.578125 C 2.421875 -1.035156 1.4375 -1.648438 0.59375 -2.421875 L 1.734375 -4.71875 C 2.535156 -3.976562 3.414062 -3.410156 4.375 -3.015625 C 5.332031 -2.617188 6.238281 -2.421875 7.09375 -2.421875 C 8.03125 -2.421875 8.753906 -2.585938 9.265625 -2.921875 C 9.785156 -3.265625 10.046875 -3.738281 10.046875 -4.34375 C 10.046875 -4.882812 9.832031 -5.335938 9.40625 -5.703125 C 8.988281 -6.078125 8.460938 -6.347656 7.828125 -6.515625 C 7.203125 -6.691406 6.519531 -6.90625 5.78125 -7.15625 C 5.039062 -7.40625 4.351562 -7.664062 3.71875 -7.9375 C 3.09375 -8.21875 2.566406 -8.664062 2.140625 -9.28125 C 1.722656 -9.90625 1.515625 -10.648438 1.515625 -11.515625 C 1.515625 -12.859375 2.039062 -13.925781 3.09375 -14.71875 C 4.144531 -15.519531 5.539062 -15.921875 7.28125 -15.921875 Z M 7.28125 -15.921875 "/></g></g></g><g fill="#004aad" fill-opacity="1"><g transform="translate(600.123314, 368.907212)"><g/></g></g><g fill="#004aad" fill-opacity="1"><g transform="translate(608.209713, 368.907212)"><g><path d="M 2.078125 -15.8125 L 8.5625 -15.8125 C 10.925781 -15.8125 12.878906 -15.066406 14.421875 -13.578125 C 15.960938 -12.085938 16.734375 -10.195312 16.734375 -7.90625 C 16.734375 -5.613281 15.957031 -3.722656 14.40625 -2.234375 C 12.863281 -0.742188 10.894531 0 8.5 0 L 2.078125 0 Z M 4.75 -13.421875 L 4.75 -2.390625 L 8.625 -2.390625 C 10.175781 -2.390625 11.46875 -2.90625 12.5 -3.9375 C 13.53125 -4.96875 14.046875 -6.28125 14.046875 -7.875 C 14.046875 -9.476562 13.515625 -10.800781 12.453125 -11.84375 C 11.398438 -12.894531 10.085938 -13.421875 8.515625 -13.421875 Z M 4.75 -13.421875 "/></g></g></g><g fill="#004aad" fill-opacity="1"><g transform="translate(627.972728, 368.907212)"><g><path d="M 4.75 0 L 2.078125 0 L 2.078125 -15.8125 L 4.75 -15.8125 Z M 4.75 0 "/></g></g></g><g fill="#004aad" fill-opacity="1"><g transform="translate(637.052903, 368.907212)"><g><path d="M 12.90625 -7.765625 L 15.234375 -7.765625 L 15.234375 -1.9375 C 14.421875 -1.320312 13.457031 -0.828125 12.34375 -0.453125 C 11.238281 -0.078125 10.148438 0.109375 9.078125 0.109375 C 6.742188 0.109375 4.773438 -0.660156 3.171875 -2.203125 C 1.566406 -3.742188 0.765625 -5.644531 0.765625 -7.90625 C 0.765625 -10.164062 1.578125 -12.0625 3.203125 -13.59375 C 4.828125 -15.125 6.835938 -15.890625 9.234375 -15.890625 C 10.347656 -15.890625 11.441406 -15.6875 12.515625 -15.28125 C 13.597656 -14.882812 14.53125 -14.347656 15.3125 -13.671875 L 13.8125 -11.703125 C 12.507812 -12.910156 10.984375 -13.515625 9.234375 -13.515625 C 7.628906 -13.515625 6.269531 -12.96875 5.15625 -11.875 C 4.039062 -10.789062 3.484375 -9.46875 3.484375 -7.90625 C 3.484375 -6.320312 4.039062 -4.988281 5.15625 -3.90625 C 6.28125 -2.820312 7.648438 -2.28125 9.265625 -2.28125 C 10.484375 -2.28125 11.695312 -2.640625 12.90625 -3.359375 Z M 12.90625 -7.765625 "/></g></g></g><g fill="#004aad" fill-opacity="1"><g transform="translate(656.228712, 368.907212)"><g><path d="M 4.75 0 L 2.078125 0 L 2.078125 -15.8125 L 4.75 -15.8125 Z M 4.75 0 "/></g></g></g><g fill="#004aad" fill-opacity="1"><g transform="translate(665.308849, 368.907212)"><g><path d="M 12.875 -13.421875 L 7.859375 -13.421875 L 7.859375 0 L 5.203125 0 L 5.203125 -13.421875 L 0.203125 -13.421875 L 0.203125 -15.8125 L 12.875 -15.8125 Z M 12.875 -13.421875 "/></g></g></g><g fill="#004aad" fill-opacity="1"><g transform="translate(680.645153, 368.907212)"><g><path d="M 12.296875 -3.5625 L 4.3125 -3.5625 L 2.796875 0 L 0.015625 0 L 7 -15.8125 L 9.734375 -15.8125 L 16.65625 0 L 13.8125 0 Z M 11.28125 -5.9375 L 8.296875 -12.96875 L 5.3125 -5.9375 Z M 11.28125 -5.9375 "/></g></g></g><g fill="#004aad" fill-opacity="1"><g transform="translate(699.572527, 368.907212)"><g><path d="M 4.75 0 L 2.078125 0 L 2.078125 -15.8125 L 4.75 -15.8125 Z M 4.75 0 "/></g></g></g><g fill="#004aad" fill-opacity="1"><g transform="translate(708.652665, 368.907212)"><g><path d="M 7.28125 -15.921875 C 9.320312 -15.921875 11.164062 -15.378906 12.8125 -14.296875 L 11.703125 -11.953125 C 10.085938 -12.929688 8.546875 -13.421875 7.078125 -13.421875 C 6.273438 -13.421875 5.644531 -13.273438 5.1875 -12.984375 C 4.726562 -12.703125 4.5 -12.296875 4.5 -11.765625 C 4.5 -11.242188 4.707031 -10.796875 5.125 -10.421875 C 5.550781 -10.054688 6.078125 -9.785156 6.703125 -9.609375 C 7.335938 -9.441406 8.023438 -9.222656 8.765625 -8.953125 C 9.503906 -8.691406 10.1875 -8.414062 10.8125 -8.125 C 11.445312 -7.832031 11.972656 -7.375 12.390625 -6.75 C 12.804688 -6.125 13.015625 -5.363281 13.015625 -4.46875 C 13.015625 -3.082031 12.457031 -1.972656 11.34375 -1.140625 C 10.238281 -0.316406 8.804688 0.09375 7.046875 0.09375 C 5.835938 0.09375 4.671875 -0.128906 3.546875 -0.578125 C 2.421875 -1.035156 1.4375 -1.648438 0.59375 -2.421875 L 1.734375 -4.71875 C 2.535156 -3.976562 3.414062 -3.410156 4.375 -3.015625 C 5.332031 -2.617188 6.238281 -2.421875 7.09375 -2.421875 C 8.03125 -2.421875 8.753906 -2.585938 9.265625 -2.921875 C 9.785156 -3.265625 10.046875 -3.738281 10.046875 -4.34375 C 10.046875 -4.882812 9.832031 -5.335938 9.40625 -5.703125 C 8.988281 -6.078125 8.460938 -6.347656 7.828125 -6.515625 C 7.203125 -6.691406 6.519531 -6.90625 5.78125 -7.15625 C 5.039062 -7.40625 4.351562 -7.664062 3.71875 -7.9375 C 3.09375 -8.21875 2.566406 -8.664062 2.140625 -9.28125 C 1.722656 -9.90625 1.515625 -10.648438 1.515625 -11.515625 C 1.515625 -12.859375 2.039062 -13.925781 3.09375 -14.71875 C 4.144531 -15.519531 5.539062 -15.921875 7.28125 -15.921875 Z M 7.28125 -15.921875 "/></g></g></g><g fill="#004aad" fill-opacity="1"><g transform="translate(724.960095, 368.907212)"><g/></g></g><g fill="#004aad" fill-opacity="1"><g transform="translate(733.046493, 368.907212)"><g><path d="M 13.375 -13.421875 L 4.75 -13.421875 L 4.75 -9.15625 L 12.46875 -9.15625 L 12.46875 -6.75 L 4.75 -6.75 L 4.75 -2.390625 L 13.640625 -2.390625 L 13.640625 0 L 2.078125 0 L 2.078125 -15.8125 L 13.375 -15.8125 Z M 13.375 -13.421875 "/></g></g></g><g fill="#004aad" fill-opacity="1"><g transform="translate(750.121839, 368.907212)"><g><path d="M 18.796875 0 L 16.328125 0 L 16.3125 -11.8125 L 11.3125 -1.65625 L 9.578125 -1.65625 L 4.59375 -11.8125 L 4.59375 0 L 2.078125 0 L 2.078125 -15.8125 L 5.234375 -15.8125 L 10.453125 -5.3125 L 15.65625 -15.8125 L 18.796875 -15.8125 Z M 18.796875 0 "/></g></g></g><g fill="#004aad" fill-opacity="1"><g transform="translate(773.272604, 368.907212)"><g/></g></g><g fill="#004aad" fill-opacity="1"><g transform="translate(781.359003, 368.907212)"><g><path d="M 2.078125 -15.8125 L 8.375 -15.8125 C 10.363281 -15.8125 11.90625 -15.335938 13 -14.390625 C 14.09375 -13.453125 14.640625 -12.128906 14.640625 -10.421875 C 14.640625 -8.628906 14.09375 -7.238281 13 -6.25 C 11.90625 -5.257812 10.363281 -4.765625 8.375 -4.765625 L 4.75 -4.765625 L 4.75 0 L 2.078125 0 Z M 4.75 -13.421875 L 4.75 -7.15625 L 8.265625 -7.15625 C 10.816406 -7.15625 12.09375 -8.21875 12.09375 -10.34375 C 12.09375 -12.394531 10.816406 -13.421875 8.265625 -13.421875 Z M 4.75 -13.421875 "/></g></g></g><g fill="#004aad" fill-opacity="1"><g transform="translate(798.818307, 368.907212)"><g><path d="M 3.1875 -13.59375 C 4.800781 -15.125 6.789062 -15.890625 9.15625 -15.890625 C 11.519531 -15.890625 13.503906 -15.125 15.109375 -13.59375 C 16.722656 -12.0625 17.53125 -10.164062 17.53125 -7.90625 C 17.53125 -5.644531 16.722656 -3.742188 15.109375 -2.203125 C 13.503906 -0.660156 11.519531 0.109375 9.15625 0.109375 C 6.789062 0.109375 4.800781 -0.660156 3.1875 -2.203125 C 1.570312 -3.742188 0.765625 -5.644531 0.765625 -7.90625 C 0.765625 -10.164062 1.570312 -12.0625 3.1875 -13.59375 Z M 9.171875 -13.484375 C 7.609375 -13.484375 6.269531 -12.941406 5.15625 -11.859375 C 4.039062 -10.785156 3.484375 -9.46875 3.484375 -7.90625 C 3.484375 -6.34375 4.039062 -5.015625 5.15625 -3.921875 C 6.28125 -2.828125 7.617188 -2.28125 9.171875 -2.28125 C 10.722656 -2.28125 12.046875 -2.828125 13.140625 -3.921875 C 14.242188 -5.015625 14.796875 -6.34375 14.796875 -7.90625 C 14.796875 -9.46875 14.242188 -10.785156 13.140625 -11.859375 C 12.046875 -12.941406 10.722656 -13.484375 9.171875 -13.484375 Z M 9.171875 -13.484375 "/></g></g></g><g fill="#004aad" fill-opacity="1"><g transform="translate(819.371814, 368.907212)"><g><path d="M 12.109375 0 L 9.21875 -4.796875 C 9.070312 -4.773438 8.832031 -4.765625 8.5 -4.765625 L 4.75 -4.765625 L 4.75 0 L 2.078125 0 L 2.078125 -15.8125 L 8.5 -15.8125 C 10.507812 -15.8125 12.070312 -15.335938 13.1875 -14.390625 C 14.300781 -13.453125 14.859375 -12.128906 14.859375 -10.421875 C 14.859375 -9.148438 14.578125 -8.078125 14.015625 -7.203125 C 13.453125 -6.328125 12.644531 -5.6875 11.59375 -5.28125 L 15.140625 0 Z M 4.75 -7.15625 L 8.5 -7.15625 C 11.0625 -7.15625 12.34375 -8.21875 12.34375 -10.34375 C 12.34375 -12.394531 11.0625 -13.421875 8.5 -13.421875 L 4.75 -13.421875 Z M 4.75 -7.15625 "/></g></g></g><g fill="#004aad" fill-opacity="1"><g transform="translate(837.960381, 368.907212)"><g><path d="M 12.875 -13.421875 L 7.859375 -13.421875 L 7.859375 0 L 5.203125 0 L 5.203125 -13.421875 L 0.203125 -13.421875 L 0.203125 -15.8125 L 12.875 -15.8125 Z M 12.875 -13.421875 "/></g></g></g><g fill="#004aad" fill-opacity="1"><g transform="translate(853.296684, 368.907212)"><g><path d="M 15.515625 -15.8125 L 15.515625 -6.546875 C 15.515625 -4.484375 14.90625 -2.859375 13.6875 -1.671875 C 12.46875 -0.484375 10.785156 0.109375 8.640625 0.109375 C 6.503906 0.109375 4.820312 -0.484375 3.59375 -1.671875 C 2.375 -2.859375 1.765625 -4.484375 1.765625 -6.546875 L 1.765625 -15.8125 L 4.421875 -15.8125 L 4.421875 -6.546875 C 4.421875 -5.222656 4.800781 -4.179688 5.5625 -3.421875 C 6.320312 -2.660156 7.359375 -2.28125 8.671875 -2.28125 C 9.972656 -2.28125 10.992188 -2.65625 11.734375 -3.40625 C 12.484375 -4.164062 12.859375 -5.210938 12.859375 -6.546875 L 12.859375 -15.8125 Z M 15.515625 -15.8125 "/></g></g></g><g fill="#004aad" fill-opacity="1"><g transform="translate(872.811228, 368.907212)"><g><path d="M 12.90625 -7.765625 L 15.234375 -7.765625 L 15.234375 -1.9375 C 14.421875 -1.320312 13.457031 -0.828125 12.34375 -0.453125 C 11.238281 -0.078125 10.148438 0.109375 9.078125 0.109375 C 6.742188 0.109375 4.773438 -0.660156 3.171875 -2.203125 C 1.566406 -3.742188 0.765625 -5.644531 0.765625 -7.90625 C 0.765625 -10.164062 1.578125 -12.0625 3.203125 -13.59375 C 4.828125 -15.125 6.835938 -15.890625 9.234375 -15.890625 C 10.347656 -15.890625 11.441406 -15.6875 12.515625 -15.28125 C 13.597656 -14.882812 14.53125 -14.347656 15.3125 -13.671875 L 13.8125 -11.703125 C 12.507812 -12.910156 10.984375 -13.515625 9.234375 -13.515625 C 7.628906 -13.515625 6.269531 -12.96875 5.15625 -11.875 C 4.039062 -10.789062 3.484375 -9.46875 3.484375 -7.90625 C 3.484375 -6.320312 4.039062 -4.988281 5.15625 -3.90625 C 6.28125 -2.820312 7.648438 -2.28125 9.265625 -2.28125 C 10.484375 -2.28125 11.695312 -2.640625 12.90625 -3.359375 Z M 12.90625 -7.765625 "/></g></g></g><g fill="#004aad" fill-opacity="1"><g transform="translate(891.987038, 368.907212)"><g><path d="M 15.515625 -15.8125 L 15.515625 -6.546875 C 15.515625 -4.484375 14.90625 -2.859375 13.6875 -1.671875 C 12.46875 -0.484375 10.785156 0.109375 8.640625 0.109375 C 6.503906 0.109375 4.820312 -0.484375 3.59375 -1.671875 C 2.375 -2.859375 1.765625 -4.484375 1.765625 -6.546875 L 1.765625 -15.8125 L 4.421875 -15.8125 L 4.421875 -6.546875 C 4.421875 -5.222656 4.800781 -4.179688 5.5625 -3.421875 C 6.320312 -2.660156 7.359375 -2.28125 8.671875 -2.28125 C 9.972656 -2.28125 10.992188 -2.65625 11.734375 -3.40625 C 12.484375 -4.164062 12.859375 -5.210938 12.859375 -6.546875 L 12.859375 -15.8125 Z M 15.515625 -15.8125 "/></g></g></g><g fill="#004aad" fill-opacity="1"><g transform="translate(911.501582, 368.907212)"><g><path d="M 11.296875 -17.59375 L 9.171875 -17.59375 L 7.765625 -19.59375 L 6.375 -17.59375 L 4.25 -17.59375 L 6.578125 -20.78125 L 8.96875 -20.78125 Z M 13.375 -13.421875 L 4.75 -13.421875 L 4.75 -9.15625 L 12.46875 -9.15625 L 12.46875 -6.75 L 4.75 -6.75 L 4.75 -2.390625 L 13.640625 -2.390625 L 13.640625 0 L 2.078125 0 L 2.078125 -15.8125 L 13.375 -15.8125 Z M 13.375 -13.421875 "/></g></g></g><g fill="#004aad" fill-opacity="1"><g transform="translate(928.576928, 368.907212)"><g><path d="M 7.28125 -15.921875 C 9.320312 -15.921875 11.164062 -15.378906 12.8125 -14.296875 L 11.703125 -11.953125 C 10.085938 -12.929688 8.546875 -13.421875 7.078125 -13.421875 C 6.273438 -13.421875 5.644531 -13.273438 5.1875 -12.984375 C 4.726562 -12.703125 4.5 -12.296875 4.5 -11.765625 C 4.5 -11.242188 4.707031 -10.796875 5.125 -10.421875 C 5.550781 -10.054688 6.078125 -9.785156 6.703125 -9.609375 C 7.335938 -9.441406 8.023438 -9.222656 8.765625 -8.953125 C 9.503906 -8.691406 10.1875 -8.414062 10.8125 -8.125 C 11.445312 -7.832031 11.972656 -7.375 12.390625 -6.75 C 12.804688 -6.125 13.015625 -5.363281 13.015625 -4.46875 C 13.015625 -3.082031 12.457031 -1.972656 11.34375 -1.140625 C 10.238281 -0.316406 8.804688 0.09375 7.046875 0.09375 C 5.835938 0.09375 4.671875 -0.128906 3.546875 -0.578125 C 2.421875 -1.035156 1.4375 -1.648438 0.59375 -2.421875 L 1.734375 -4.71875 C 2.535156 -3.976562 3.414062 -3.410156 4.375 -3.015625 C 5.332031 -2.617188 6.238281 -2.421875 7.09375 -2.421875 C 8.03125 -2.421875 8.753906 -2.585938 9.265625 -2.921875 C 9.785156 -3.265625 10.046875 -3.738281 10.046875 -4.34375 C 10.046875 -4.882812 9.832031 -5.335938 9.40625 -5.703125 C 8.988281 -6.078125 8.460938 -6.347656 7.828125 -6.515625 C 7.203125 -6.691406 6.519531 -6.90625 5.78125 -7.15625 C 5.039062 -7.40625 4.351562 -7.664062 3.71875 -7.9375 C 3.09375 -8.21875 2.566406 -8.664062 2.140625 -9.28125 C 1.722656 -9.90625 1.515625 -10.648438 1.515625 -11.515625 C 1.515625 -12.859375 2.039062 -13.925781 3.09375 -14.71875 C 4.144531 -15.519531 5.539062 -15.921875 7.28125 -15.921875 Z M 7.28125 -15.921875 "/></g></g></g><g fill="#004aad" fill-opacity="1"><g transform="translate(16.88503, 316.1453)"><g><path d="M 82.703125 -76.65625 L 82.515625 -90.21875 L 82.515625 -125.25 C 86.304688 -125.976562 91.226562 -126.34375 97.28125 -126.34375 C 103.332031 -126.34375 108.191406 -125.976562 111.859375 -125.25 L 111.859375 0 C 107.941406 0.726562 103.050781 1.09375 97.1875 1.09375 C 91.320312 1.09375 86.429688 0.726562 82.515625 0 L 82.515625 -38.875 L 82.703125 -52.4375 L 73.53125 -52.265625 L 52.265625 -52.265625 L 43.09375 -52.4375 L 43.28125 -38.875 L 43.28125 0 C 39.488281 0.726562 34.597656 1.09375 28.609375 1.09375 C 22.617188 1.09375 17.726562 0.726562 13.9375 0 L 13.9375 -125.25 C 17.726562 -125.976562 22.617188 -126.34375 28.609375 -126.34375 C 34.597656 -126.34375 39.488281 -125.976562 43.28125 -125.25 L 43.28125 -90.21875 L 43.09375 -76.65625 L 52.265625 -76.828125 L 73.53125 -76.828125 Z M 82.703125 -76.65625 "/></g></g></g><g fill="#004aad" fill-opacity="1"><g transform="translate(142.675204, 316.1453)"><g><path d="M 42.71875 -37.046875 L 42.546875 -23.84375 L 42.546875 -23.65625 C 48.171875 -23.894531 52.691406 -24.015625 56.109375 -24.015625 L 98.65625 -24.015625 C 98.65625 -19.492188 98.472656 -16.007812 98.109375 -13.5625 C 96.640625 -4.15625 90.40625 0.546875 79.40625 0.546875 L 30.625 0.546875 C 25.363281 0.546875 21.234375 -0.976562 18.234375 -4.03125 C 15.242188 -7.09375 13.75 -11.25 13.75 -16.5 L 13.75 -123.96875 L 15.03125 -125.25 L 94.078125 -125.25 C 94.804688 -121.695312 95.171875 -117.84375 95.171875 -113.6875 C 95.171875 -109.53125 94.316406 -105.191406 92.609375 -100.671875 L 42.546875 -100.671875 L 42.71875 -87.46875 L 42.71875 -74.640625 C 45.90625 -74.753906 50.066406 -74.8125 55.203125 -74.8125 L 83.25 -74.8125 C 84.351562 -71.394531 84.90625 -67.484375 84.90625 -63.078125 C 84.90625 -58.679688 84.351562 -54.648438 83.25 -50.984375 L 42.71875 -50.984375 Z M 42.71875 -37.046875 "/></g></g></g><g fill="#004aad" fill-opacity="1"><g transform="translate(247.744832, 316.1453)"><g><path d="M 10.078125 -0.359375 L 19.796875 -125.0625 C 25.179688 -126.039062 31.539062 -126.53125 38.875 -126.53125 C 46.207031 -126.53125 52.625 -126.039062 58.125 -125.0625 L 68.953125 -80.140625 C 73.222656 -59.835938 75.484375 -48.769531 75.734375 -46.9375 L 77.015625 -46.9375 C 77.503906 -50 79.765625 -61.066406 83.796875 -80.140625 L 94.8125 -125.0625 C 100.1875 -126.039062 106.539062 -126.53125 113.875 -126.53125 C 121.207031 -126.53125 127.625 -126.039062 133.125 -125.0625 L 142.84375 -0.359375 C 139.0625 0.609375 134.390625 1.09375 128.828125 1.09375 C 123.265625 1.09375 118.707031 0.789062 115.15625 0.1875 L 112.21875 -50.796875 C 111.363281 -71.085938 110.878906 -85.207031 110.765625 -93.15625 L 109.65625 -93.15625 L 91.5 -18.515625 C 87.101562 -17.785156 82.0625 -17.421875 76.375 -17.421875 C 70.6875 -17.421875 65.644531 -17.785156 61.25 -18.515625 L 43.28125 -93.15625 L 42 -93.15625 C 42 -82.269531 41.507812 -68.148438 40.53125 -50.796875 L 37.78125 0.1875 C 34.226562 0.789062 29.671875 1.09375 24.109375 1.09375 C 18.546875 1.09375 13.867188 0.609375 10.078125 -0.359375 Z M 10.078125 -0.359375 "/></g></g></g><g fill="#004aad" fill-opacity="1"><g transform="translate(400.490037, 316.1453)"><g><path d="M 94.984375 -8.0625 C 91.078125 -4.882812 85.941406 -2.5625 79.578125 -1.09375 C 73.222656 0.363281 66.195312 1.09375 58.5 1.09375 C 54.707031 1.09375 49.234375 1.03125 42.078125 0.90625 C 34.929688 0.789062 25.976562 0.609375 15.21875 0.359375 L 13.9375 -0.921875 L 13.9375 -124.328125 L 15.21875 -125.609375 C 22.3125 -125.859375 29.675781 -126.039062 37.3125 -126.15625 C 44.957031 -126.28125 53 -126.34375 61.4375 -126.34375 C 71.820312 -126.34375 80.5 -124.691406 87.46875 -121.390625 C 94.4375 -118.085938 100 -113.5625 104.15625 -107.8125 C 108.3125 -102.070312 111.242188 -95.320312 112.953125 -87.5625 C 114.671875 -79.800781 115.53125 -71.457031 115.53125 -62.53125 C 115.53125 -50.300781 114.125 -39.722656 111.3125 -30.796875 C 108.5 -21.878906 103.054688 -14.300781 94.984375 -8.0625 Z M 61.25 -21.828125 C 77.382812 -21.828125 85.453125 -35.394531 85.453125 -62.53125 C 85.453125 -89.789062 77.382812 -103.421875 61.25 -103.421875 C 57.332031 -103.421875 53.875 -103.421875 50.875 -103.421875 C 47.882812 -103.421875 45.289062 -103.484375 43.09375 -103.609375 L 43.09375 -21.640625 C 45.289062 -21.765625 47.882812 -21.828125 50.875 -21.828125 C 53.875 -21.828125 57.332031 -21.828125 61.25 -21.828125 Z M 61.25 -21.828125 "/></g></g></g><g fill="#004aad" fill-opacity="1"><g transform="translate(522.796242, 316.1453)"><g><path d="M 14.296875 0 L 14.296875 -125.25 C 18.085938 -125.976562 22.976562 -126.34375 28.96875 -126.34375 C 34.957031 -126.34375 39.910156 -125.976562 43.828125 -125.25 L 43.828125 0 C 39.910156 0.726562 34.957031 1.09375 28.96875 1.09375 C 22.976562 1.09375 18.085938 0.726562 14.296875 0 Z M 14.296875 0 "/></g></g></g><g fill="#004aad" fill-opacity="1"><g transform="translate(580.923786, 316.1453)"><g><path d="M 62.34375 -71.15625 L 91.140625 -71.328125 C 104.097656 -71.328125 110.578125 -65.21875 110.578125 -53 L 110.578125 -4.765625 C 94.804688 0.242188 78.238281 2.75 60.875 2.75 C 52.070312 2.75 44.28125 1.285156 37.5 -1.640625 C 30.71875 -4.578125 25.03125 -8.796875 20.4375 -14.296875 C 15.851562 -19.804688 12.398438 -26.5625 10.078125 -34.5625 C 7.753906 -42.570312 6.59375 -51.648438 6.59375 -61.796875 C 6.59375 -72.921875 8.210938 -82.609375 11.453125 -90.859375 C 14.703125 -99.109375 19.046875 -105.984375 24.484375 -111.484375 C 29.921875 -116.992188 36.179688 -121.125 43.265625 -123.875 C 50.359375 -126.625 57.757812 -128 65.46875 -128 C 81.351562 -128 96.265625 -123.597656 110.203125 -114.796875 C 110.085938 -112.835938 109.628906 -110.847656 108.828125 -108.828125 C 108.035156 -106.816406 107.054688 -104.863281 105.890625 -102.96875 C 104.734375 -101.070312 103.390625 -99.359375 101.859375 -97.828125 C 100.335938 -96.296875 98.78125 -94.984375 97.1875 -93.890625 C 87.039062 -100.492188 76.769531 -103.796875 66.375 -103.796875 C 46.445312 -103.796875 36.484375 -89.859375 36.484375 -61.984375 C 36.484375 -34.234375 46.691406 -20.359375 67.109375 -20.359375 C 69.921875 -20.359375 72.640625 -20.476562 75.265625 -20.71875 C 77.898438 -20.96875 80.5 -21.335938 83.0625 -21.828125 L 83.0625 -34.109375 C 83.0625 -36.921875 83.09375 -39.363281 83.15625 -41.4375 C 83.21875 -43.519531 83.3125 -45.296875 83.4375 -46.765625 L 74.265625 -46.765625 C 69.003906 -46.765625 65.363281 -47.769531 63.34375 -49.78125 C 61.332031 -51.800781 60.328125 -54.953125 60.328125 -59.234375 C 60.328125 -62.898438 61 -66.875 62.34375 -71.15625 Z M 62.34375 -71.15625 "/></g></g></g><g fill="#004aad" fill-opacity="1"><g transform="translate(690.441536, 307.490508)"><g><path d="M 49.097656 11.011719 L 58.425781 4.921875 C 58.292969 4.664062 39.640625 -24.09375 39.640625 -45.46875 C 39.640625 -67.101562 58.292969 -96.25 58.425781 -96.507812 L 49.097656 -102.46875 C 48.191406 -101.171875 28.5 -70.472656 28.5 -45.46875 C 28.5 -20.855469 48.191406 9.714844 49.097656 11.011719 Z M 49.097656 11.011719 "/></g></g></g><g fill="#004aad" fill-opacity="1"><g transform="translate(751.449726, 307.490508)"><g><path d="M 50.003906 1.8125 C 68.011719 1.8125 80.058594 -12.4375 80.058594 -33.292969 C 80.058594 -54.539062 66.84375 -69.046875 49.226562 -69.046875 C 38.605469 -69.046875 30.054688 -63.21875 25.777344 -57 L 25.519531 -57 L 25.519531 -67.234375 L 14.898438 -67.234375 L 14.898438 24.355469 L 25.519531 24.355469 L 25.519531 -9.585938 L 25.777344 -9.585938 C 31.347656 -2.460938 38.863281 1.8125 50.003906 1.8125 Z M 47.414062 -59.589844 C 60.886719 -59.589844 69.433594 -49.355469 69.433594 -33.941406 C 69.433594 -18.652344 61.015625 -7.382812 47.152344 -7.382812 C 34.71875 -7.382812 25.390625 -18.007812 25.390625 -33.941406 C 25.390625 -48.191406 36.011719 -59.589844 47.414062 -59.589844 Z M 47.414062 -59.589844 "/></g></g></g><g fill="#004aad" fill-opacity="1"><g transform="translate(812.457916, 307.490508)"><g><path d="M 74.097656 -61.664062 L 74.097656 -71.765625 L 36.789062 -71.765625 L 36.789062 -92.753906 L 26.167969 -92.753906 C 26.167969 -90.160156 26.167969 -90.421875 26.167969 -86.144531 C 26.167969 -73.839844 23.578125 -71.765625 9.714844 -71.765625 C 9.714844 -66.195312 9.714844 -67.234375 9.714844 -61.664062 L 26.167969 -61.664062 L 26.167969 -26.425781 C 26.167969 -12.953125 32.644531 1.8125 53.371094 1.8125 C 61.664062 1.8125 69.304688 0 76.691406 -2.589844 L 76.691406 -13.730469 C 67.492188 -9.457031 59.070312 -7.902344 53.761719 -7.902344 C 43.007812 -7.902344 36.789062 -16.0625 36.789062 -26.425781 L 36.789062 -61.664062 Z M 74.097656 -61.664062 "/></g></g></g><g fill="#004aad" fill-opacity="1"><g transform="translate(873.4661, 307.490508)"><g><path d="M 37.828125 11.011719 C 38.734375 9.714844 58.425781 -20.855469 58.425781 -45.46875 C 58.425781 -70.472656 38.734375 -101.171875 37.828125 -102.46875 L 28.5 -96.507812 C 28.628906 -96.25 47.285156 -67.101562 47.285156 -45.46875 C 47.285156 -24.09375 28.628906 4.664062 28.5 4.921875 Z M 37.828125 11.011719 "/></g></g></g></svg>