<svg xmlns="http://www.w3.org/2000/svg" xmlns:xlink="http://www.w3.org/1999/xlink" width="1280" zoomAndPan="magnify" viewBox="0 0 960 479.999983" height="640" preserveAspectRatio="xMidYMid meet" version="1.0"><defs><g/><clipPath id="19d1f390a1"><path d="M 123 333 L 136 333 L 136 345 L 123 345 Z M 123 333 " clip-rule="nonzero"/></clipPath><clipPath id="a99351a99e"><path d="M 133.820312 117.429688 L 256.488281 240.097656 L 133.820312 362.765625 L 11.152344 240.097656 Z M 133.820312 117.429688 " clip-rule="nonzero"/></clipPath><clipPath id="1cbee748b3"><path d="M 133.820312 117.429688 L 256.488281 240.097656 L 133.820312 362.765625 L 11.152344 240.097656 Z M 133.820312 117.429688 " clip-rule="nonzero"/></clipPath><clipPath id="280d7da153"><path d="M 131 325 L 144 325 L 144 338 L 131 338 Z M 131 325 " clip-rule="nonzero"/></clipPath><clipPath id="f247c37b5a"><path d="M 133.820312 117.429688 L 256.488281 240.097656 L 133.820312 362.765625 L 11.152344 240.097656 Z M 133.820312 117.429688 " clip-rule="nonzero"/></clipPath><clipPath id="27b6cedab9"><path d="M 133.820312 117.429688 L 256.488281 240.097656 L 133.820312 362.765625 L 11.152344 240.097656 Z M 133.820312 117.429688 " clip-rule="nonzero"/></clipPath><clipPath id="efdcdeb42c"><path d="M 76 190 L 89 190 L 89 203 L 76 203 Z M 76 190 " clip-rule="nonzero"/></clipPath><clipPath id="70cffded91"><path d="M 133.820312 117.429688 L 256.488281 240.097656 L 133.820312 362.765625 L 11.152344 240.097656 Z M 133.820312 117.429688 " clip-rule="nonzero"/></clipPath><clipPath id="cb554d6699"><path d="M 133.820312 117.429688 L 256.488281 240.097656 L 133.820312 362.765625 L 11.152344 240.097656 Z M 133.820312 117.429688 " clip-rule="nonzero"/></clipPath><clipPath id="c35a16c692"><path d="M 84 182 L 97 182 L 97 195 L 84 195 Z M 84 182 " clip-rule="nonzero"/></clipPath><clipPath id="3c41b3a977"><path d="M 133.820312 117.429688 L 256.488281 240.097656 L 133.820312 362.765625 L 11.152344 240.097656 Z M 133.820312 117.429688 " clip-rule="nonzero"/></clipPath><clipPath id="87a2daa96f"><path d="M 133.820312 117.429688 L 256.488281 240.097656 L 133.820312 362.765625 L 11.152344 240.097656 Z M 133.820312 117.429688 " clip-rule="nonzero"/></clipPath><clipPath id="8eb4376a90"><path d="M 11 133 L 257 133 L 257 355 L 11 355 Z M 11 133 " clip-rule="nonzero"/></clipPath><clipPath id="f4f9619d27"><path d="M 133.820312 117.429688 L 256.488281 240.097656 L 133.820312 362.765625 L 11.152344 240.097656 Z M 133.820312 117.429688 " clip-rule="nonzero"/></clipPath><clipPath id="67b45092de"><path d="M 133.820312 117.429688 L 256.488281 240.097656 L 133.820312 362.765625 L 11.152344 240.097656 Z M 133.820312 117.429688 " clip-rule="nonzero"/></clipPath><clipPath id="14b69264e4"><path d="M 34 228 L 43 228 L 43 237 L 34 237 Z M 34 228 " clip-rule="nonzero"/></clipPath><clipPath id="1939dc60fc"><path d="M 133.820312 117.429688 L 256.488281 240.097656 L 133.820312 362.765625 L 11.152344 240.097656 Z M 133.820312 117.429688 " clip-rule="nonzero"/></clipPath><clipPath id="c5a83ddec5"><path d="M 133.820312 117.429688 L 256.488281 240.097656 L 133.820312 362.765625 L 11.152344 240.097656 Z M 133.820312 117.429688 " clip-rule="nonzero"/></clipPath><clipPath id="63667388e2"><path d="M 42 236 L 51 236 L 51 245 L 42 245 Z M 42 236 " clip-rule="nonzero"/></clipPath><clipPath id="69d8fcbe38"><path d="M 133.820312 117.429688 L 256.488281 240.097656 L 133.820312 362.765625 L 11.152344 240.097656 Z M 133.820312 117.429688 " clip-rule="nonzero"/></clipPath><clipPath id="4d9724c295"><path d="M 133.820312 117.429688 L 256.488281 240.097656 L 133.820312 362.765625 L 11.152344 240.097656 Z M 133.820312 117.429688 " clip-rule="nonzero"/></clipPath><clipPath id="a41c7d3317"><path d="M 50 244 L 63 244 L 63 256 L 50 256 Z M 50 244 " clip-rule="nonzero"/></clipPath><clipPath id="a543346ec1"><path d="M 133.820312 117.429688 L 256.488281 240.097656 L 133.820312 362.765625 L 11.152344 240.097656 Z M 133.820312 117.429688 " clip-rule="nonzero"/></clipPath><clipPath id="b620038379"><path d="M 133.820312 117.429688 L 256.488281 240.097656 L 133.820312 362.765625 L 11.152344 240.097656 Z M 133.820312 117.429688 " clip-rule="nonzero"/></clipPath><clipPath id="ede5099199"><path d="M 26 236 L 55 236 L 55 264 L 26 264 Z M 26 236 " clip-rule="nonzero"/></clipPath><clipPath id="41b46b222b"><path d="M 133.820312 117.429688 L 256.488281 240.097656 L 133.820312 362.765625 L 11.152344 240.097656 Z M 133.820312 117.429688 " clip-rule="nonzero"/></clipPath><clipPath id="95f57ade01"><path d="M 133.820312 117.429688 L 256.488281 240.097656 L 133.820312 362.765625 L 11.152344 240.097656 Z M 133.820312 117.429688 " clip-rule="nonzero"/></clipPath><clipPath id="7fe53ba9aa"><path d="M 212 216 L 241 216 L 241 245 L 212 245 Z M 212 216 " clip-rule="nonzero"/></clipPath><clipPath id="6df55862ba"><path d="M 133.820312 117.429688 L 256.488281 240.097656 L 133.820312 362.765625 L 11.152344 240.097656 Z M 133.820312 117.429688 " clip-rule="nonzero"/></clipPath><clipPath id="7a4462942c"><path d="M 133.820312 117.429688 L 256.488281 240.097656 L 133.820312 362.765625 L 11.152344 240.097656 Z M 133.820312 117.429688 " clip-rule="nonzero"/></clipPath><clipPath id="338cf9618f"><path d="M 205 224 L 233 224 L 233 252 L 205 252 Z M 205 224 " clip-rule="nonzero"/></clipPath><clipPath id="18f927037f"><path d="M 133.820312 117.429688 L 256.488281 240.097656 L 133.820312 362.765625 L 11.152344 240.097656 Z M 133.820312 117.429688 " clip-rule="nonzero"/></clipPath><clipPath id="b82bac6547"><path d="M 133.820312 117.429688 L 256.488281 240.097656 L 133.820312 362.765625 L 11.152344 240.097656 Z M 133.820312 117.429688 " clip-rule="nonzero"/></clipPath><clipPath id="6387dd7daf"><path d="M 129 145 L 146 145 L 146 161 L 129 161 Z M 129 145 " clip-rule="nonzero"/></clipPath><clipPath id="969e722a5b"><path d="M 133.820312 117.429688 L 256.488281 240.097656 L 133.820312 362.765625 L 11.152344 240.097656 Z M 133.820312 117.429688 " clip-rule="nonzero"/></clipPath><clipPath id="20ee57c8e3"><path d="M 133.820312 117.429688 L 256.488281 240.097656 L 133.820312 362.765625 L 11.152344 240.097656 Z M 133.820312 117.429688 " clip-rule="nonzero"/></clipPath><clipPath id="1c1c92a59e"><path d="M 181 279 L 194 279 L 194 292 L 181 292 Z M 181 279 " clip-rule="nonzero"/></clipPath><clipPath id="3191e33110"><path d="M 133.820312 117.429688 L 256.488281 240.097656 L 133.820312 362.765625 L 11.152344 240.097656 Z M 133.820312 117.429688 " clip-rule="nonzero"/></clipPath><clipPath id="66603b6bde"><path d="M 133.820312 117.429688 L 256.488281 240.097656 L 133.820312 362.765625 L 11.152344 240.097656 Z M 133.820312 117.429688 " clip-rule="nonzero"/></clipPath><clipPath id="71f23fb798"><path d="M 173 287 L 186 287 L 186 300 L 173 300 Z M 173 287 " clip-rule="nonzero"/></clipPath><clipPath id="3c9f8a38e7"><path d="M 133.820312 117.429688 L 256.488281 240.097656 L 133.820312 362.765625 L 11.152344 240.097656 Z M 133.820312 117.429688 " clip-rule="nonzero"/></clipPath><clipPath id="ec8790238c"><path d="M 133.820312 117.429688 L 256.488281 240.097656 L 133.820312 362.765625 L 11.152344 240.097656 Z M 133.820312 117.429688 " clip-rule="nonzero"/></clipPath></defs><g clip-path="url(#19d1f390a1)"><g clip-path="url(#a99351a99e)"><g clip-path="url(#1cbee748b3)"><path fill="#004aad" d="M 135.796875 341 L 127.882812 333.085938 L 123.925781 337.042969 L 131.839844 344.957031 L 135.796875 341 " fill-opacity="1" fill-rule="nonzero"/></g></g></g><g clip-path="url(#280d7da153)"><g clip-path="url(#f247c37b5a)"><g clip-path="url(#27b6cedab9)"><path fill="#004aad" d="M 143.710938 333.085938 L 135.796875 325.171875 L 131.839844 329.128906 L 139.753906 337.042969 L 143.710938 333.085938 " fill-opacity="1" fill-rule="nonzero"/></g></g></g><g clip-path="url(#efdcdeb42c)"><g clip-path="url(#70cffded91)"><g clip-path="url(#cb554d6699)"><path fill="#004aad" d="M 76.441406 194.589844 L 84.355469 202.503906 L 88.3125 198.546875 L 80.398438 190.632812 L 76.441406 194.589844 " fill-opacity="1" fill-rule="nonzero"/></g></g></g><g clip-path="url(#c35a16c692)"><g clip-path="url(#3c41b3a977)"><g clip-path="url(#87a2daa96f)"><path fill="#004aad" d="M 84.355469 186.675781 L 92.269531 194.589844 L 96.226562 190.632812 L 88.3125 182.71875 L 84.355469 186.675781 " fill-opacity="1" fill-rule="nonzero"/></g></g></g><g clip-path="url(#8eb4376a90)"><g clip-path="url(#f4f9619d27)"><g clip-path="url(#67b45092de)"><path fill="#004aad" d="M 216.917969 208.441406 L 248.574219 240.097656 L 228.789062 259.882812 L 197.132812 228.226562 Z M 179.324219 242.074219 L 175.367188 246.03125 C 174.277344 247.121094 172.5 247.121094 171.410156 246.03125 L 127.882812 202.503906 C 126.792969 201.414062 126.792969 199.636719 127.882812 198.546875 L 131.839844 194.589844 C 132.929688 193.5 134.707031 193.5 135.796875 194.589844 L 179.324219 238.117188 C 180.414062 239.207031 180.414062 240.984375 179.324219 242.074219 Z M 161.519531 248.011719 C 160.429688 249.101562 158.652344 249.101562 157.5625 248.011719 L 125.90625 216.355469 C 124.816406 215.265625 124.816406 213.488281 125.90625 212.398438 C 126.996094 211.308594 128.773438 211.308594 129.863281 212.398438 L 161.519531 244.054688 C 162.609375 245.144531 162.609375 246.921875 161.519531 248.011719 Z M 159.539062 261.859375 L 155.582031 265.816406 C 154.492188 266.90625 152.714844 266.90625 151.625 265.816406 L 108.097656 222.289062 C 107.007812 221.199219 107.007812 219.421875 108.097656 218.332031 L 112.054688 214.375 C 113.144531 213.285156 114.921875 213.285156 116.011719 214.375 L 159.539062 257.902344 C 160.628906 258.992188 160.628906 260.769531 159.539062 261.859375 Z M 141.734375 267.796875 C 140.644531 268.886719 138.867188 268.886719 137.777344 267.796875 L 106.121094 236.140625 C 105.03125 235.050781 105.03125 233.273438 106.121094 232.183594 C 107.210938 231.09375 108.988281 231.09375 110.078125 232.183594 L 141.734375 263.839844 C 142.824219 264.929688 142.824219 266.707031 141.734375 267.796875 Z M 139.753906 281.644531 L 135.796875 285.601562 C 134.707031 286.691406 132.929688 286.691406 131.839844 285.601562 L 88.3125 242.074219 C 87.222656 240.984375 87.222656 239.207031 88.3125 238.117188 L 92.269531 234.160156 C 93.359375 233.070312 95.136719 233.070312 96.226562 234.160156 L 139.753906 277.6875 C 140.84375 278.777344 140.84375 280.554688 139.753906 281.644531 Z M 185.261719 271.753906 L 201.089844 287.582031 L 181.304688 307.367188 L 165.476562 291.539062 Z M 143.710938 325.171875 C 149.167969 330.628906 149.167969 339.5 143.710938 344.957031 C 138.253906 350.414062 129.382812 350.414062 123.925781 344.957031 C 118.46875 339.5 118.46875 330.628906 123.925781 325.171875 C 129.382812 319.714844 138.253906 319.714844 143.710938 325.171875 Z M 50.722656 271.753906 L 19.066406 240.097656 L 38.851562 220.3125 L 70.507812 251.96875 Z M 76.441406 202.503906 C 70.984375 197.046875 70.984375 188.175781 76.441406 182.71875 C 81.898438 177.261719 90.769531 177.261719 96.226562 182.71875 C 101.683594 188.175781 101.683594 197.046875 96.226562 202.503906 C 90.769531 207.960938 81.898438 207.960938 76.441406 202.503906 Z M 128.378906 162.441406 L 125.25 140.511719 L 147.175781 143.644531 L 150.304688 165.570312 Z M 228.789062 267.796875 L 256.488281 240.097656 L 216.917969 200.527344 L 205.046875 212.398438 L 197.132812 204.484375 C 191.675781 199.027344 182.804688 199.027344 177.347656 204.484375 L 165.476562 216.355469 L 157.5625 208.441406 L 167.453125 198.546875 C 172.910156 193.089844 172.910156 184.21875 167.453125 178.761719 L 156.246094 167.554688 L 152.121094 138.699219 L 118.648438 133.914062 L 123.433594 167.386719 L 152.289062 171.511719 L 163.496094 182.71875 C 166.773438 185.996094 166.773438 191.3125 163.496094 194.589844 L 153.605469 204.484375 L 139.753906 190.632812 C 136.476562 187.355469 131.160156 187.355469 127.882812 190.632812 L 123.925781 194.589844 C 120.648438 197.867188 120.648438 203.183594 123.925781 206.460938 L 124.289062 206.824219 C 123.449219 207.234375 122.644531 207.746094 121.949219 208.441406 C 121.253906 209.136719 120.742188 209.941406 120.332031 210.78125 L 119.96875 210.417969 C 116.691406 207.140625 111.375 207.140625 108.097656 210.417969 L 102 204.320312 C 107.742188 196.660156 107.148438 185.726562 100.183594 178.761719 C 92.546875 171.125 80.121094 171.125 72.484375 178.761719 C 64.847656 186.398438 64.847656 198.824219 72.484375 206.460938 C 79.449219 213.425781 90.382812 214.019531 98.042969 208.277344 L 104.140625 214.375 C 100.863281 217.652344 100.863281 222.96875 104.140625 226.246094 L 104.503906 226.609375 C 103.664062 227.019531 102.859375 227.53125 102.164062 228.226562 C 101.46875 228.921875 100.957031 229.726562 100.546875 230.566406 L 100.183594 230.203125 C 96.90625 226.925781 91.589844 226.925781 88.3125 230.203125 L 84.355469 234.160156 C 81.078125 237.4375 81.078125 242.753906 84.355469 246.03125 L 98.207031 259.882812 L 86.335938 271.753906 C 83.058594 275.03125 77.742188 275.03125 74.464844 271.753906 L 66.550781 263.839844 L 78.421875 251.96875 L 38.851562 212.398438 L 11.152344 240.097656 L 50.722656 279.667969 L 62.59375 267.796875 L 70.507812 275.710938 C 75.964844 281.167969 84.835938 281.167969 90.292969 275.710938 L 102.164062 263.839844 L 110.078125 271.753906 L 98.207031 283.625 C 92.75 289.082031 92.75 297.953125 98.207031 303.410156 L 118.152344 323.355469 C 112.410156 331.015625 113.007812 341.953125 119.96875 348.914062 C 127.605469 356.550781 140.035156 356.550781 147.667969 348.914062 C 155.304688 341.28125 155.304688 328.851562 147.667969 321.214844 C 140.707031 314.253906 129.769531 313.65625 122.109375 319.398438 L 102.164062 299.453125 C 98.886719 296.175781 98.886719 290.859375 102.164062 287.582031 L 114.035156 275.710938 L 127.882812 289.558594 C 131.160156 292.835938 136.476562 292.835938 139.753906 289.558594 L 143.710938 285.601562 C 146.988281 282.324219 146.988281 277.007812 143.710938 273.730469 L 143.347656 273.367188 C 144.191406 272.957031 144.996094 272.449219 145.691406 271.753906 C 146.386719 271.058594 146.894531 270.253906 147.304688 269.410156 L 147.667969 269.773438 C 150.945312 273.050781 156.261719 273.050781 159.539062 269.773438 L 169.433594 279.667969 L 157.5625 291.539062 L 181.304688 315.28125 L 209.003906 287.582031 L 185.261719 263.839844 L 173.390625 275.710938 L 163.496094 265.816406 C 166.773438 262.539062 166.773438 257.222656 163.496094 253.945312 L 163.132812 253.582031 C 163.976562 253.171875 164.78125 252.664062 165.476562 251.96875 C 166.171875 251.273438 166.679688 250.46875 167.089844 249.625 L 167.453125 249.988281 C 170.730469 253.265625 176.046875 253.265625 179.324219 249.988281 L 183.28125 246.03125 C 186.558594 242.753906 186.558594 237.4375 183.28125 234.160156 L 169.433594 220.3125 L 181.304688 208.441406 C 184.582031 205.164062 189.898438 205.164062 193.175781 208.441406 L 201.089844 216.355469 L 189.21875 228.226562 L 228.789062 267.796875 " fill-opacity="1" fill-rule="nonzero"/></g></g></g><g clip-path="url(#14b69264e4)"><g clip-path="url(#1939dc60fc)"><g clip-path="url(#c5a83ddec5)"><path fill="#004aad" d="M 42.808594 232.183594 L 38.851562 228.226562 L 34.894531 232.183594 L 38.851562 236.140625 L 42.808594 232.183594 " fill-opacity="1" fill-rule="nonzero"/></g></g></g><g clip-path="url(#63667388e2)"><g clip-path="url(#69d8fcbe38)"><g clip-path="url(#4d9724c295)"><path fill="#004aad" d="M 50.722656 240.097656 L 46.765625 236.140625 L 42.808594 240.097656 L 46.765625 244.054688 L 50.722656 240.097656 " fill-opacity="1" fill-rule="nonzero"/></g></g></g><g clip-path="url(#a41c7d3317)"><g clip-path="url(#a543346ec1)"><g clip-path="url(#b620038379)"><path fill="#004aad" d="M 62.59375 251.96875 L 54.679688 244.054688 L 50.722656 248.011719 L 58.636719 255.925781 L 62.59375 251.96875 " fill-opacity="1" fill-rule="nonzero"/></g></g></g><g clip-path="url(#ede5099199)"><g clip-path="url(#41b46b222b)"><g clip-path="url(#95f57ade01)"><path fill="#004aad" d="M 54.679688 259.882812 L 30.9375 236.140625 L 26.980469 240.097656 L 50.722656 263.839844 L 54.679688 259.882812 " fill-opacity="1" fill-rule="nonzero"/></g></g></g><g clip-path="url(#7fe53ba9aa)"><g clip-path="url(#6df55862ba)"><g clip-path="url(#7a4462942c)"><path fill="#004aad" d="M 212.960938 220.3125 L 236.703125 244.054688 L 240.660156 240.097656 L 216.917969 216.355469 L 212.960938 220.3125 " fill-opacity="1" fill-rule="nonzero"/></g></g></g><g clip-path="url(#338cf9618f)"><g clip-path="url(#18f927037f)"><g clip-path="url(#b82bac6547)"><path fill="#004aad" d="M 205.046875 228.226562 L 228.789062 251.96875 L 232.746094 248.011719 L 209.003906 224.269531 L 205.046875 228.226562 " fill-opacity="1" fill-rule="nonzero"/></g></g></g><g clip-path="url(#6387dd7daf)"><g clip-path="url(#969e722a5b)"><g clip-path="url(#20ee57c8e3)"><path fill="#004aad" d="M 129.863281 149.085938 L 141.734375 160.957031 L 145.691406 157 L 133.820312 145.128906 L 129.863281 149.085938 " fill-opacity="1" fill-rule="nonzero"/></g></g></g><g clip-path="url(#1c1c92a59e)"><g clip-path="url(#3191e33110)"><g clip-path="url(#66603b6bde)"><path fill="#004aad" d="M 181.304688 283.625 L 189.21875 291.539062 L 193.175781 287.582031 L 185.261719 279.667969 L 181.304688 283.625 " fill-opacity="1" fill-rule="nonzero"/></g></g></g><g clip-path="url(#71f23fb798)"><g clip-path="url(#3c9f8a38e7)"><g clip-path="url(#ec8790238c)"><path fill="#004aad" d="M 173.390625 291.539062 L 181.304688 299.453125 L 185.261719 295.496094 L 177.347656 287.582031 L 173.390625 291.539062 " fill-opacity="1" fill-rule="nonzero"/></g></g></g><g fill="#004aad" fill-opacity="1"><g transform="translate(260.57164, 283.905305)"><g><path d="M 61.078125 -56.609375 L 60.9375 -66.625 L 60.9375 -92.5 C 63.738281 -93.039062 67.375 -93.3125 71.84375 -93.3125 C 76.3125 -93.3125 79.898438 -93.039062 82.609375 -92.5 L 82.609375 0 C 79.722656 0.539062 76.109375 0.8125 71.765625 0.8125 C 67.429688 0.8125 63.820312 0.539062 60.9375 0 L 60.9375 -28.703125 L 61.078125 -38.734375 L 54.296875 -38.59375 L 38.59375 -38.59375 L 31.828125 -38.734375 L 31.953125 -28.703125 L 31.953125 0 C 29.160156 0.539062 25.550781 0.8125 21.125 0.8125 C 16.695312 0.8125 13.085938 0.539062 10.296875 0 L 10.296875 -92.5 C 13.085938 -93.039062 16.695312 -93.3125 21.125 -93.3125 C 25.550781 -93.3125 29.160156 -93.039062 31.953125 -92.5 L 31.953125 -66.625 L 31.828125 -56.609375 L 38.59375 -56.734375 L 54.296875 -56.734375 Z M 61.078125 -56.609375 "/></g></g></g><g fill="#004aad" fill-opacity="1"><g transform="translate(353.465359, 283.905305)"><g><path d="M 31.546875 -27.359375 L 31.421875 -17.609375 L 31.421875 -17.46875 C 35.566406 -17.644531 38.90625 -17.734375 41.4375 -17.734375 L 72.859375 -17.734375 C 72.859375 -14.398438 72.722656 -11.828125 72.453125 -10.015625 C 71.367188 -3.066406 66.765625 0.40625 58.640625 0.40625 L 22.609375 0.40625 C 18.734375 0.40625 15.6875 -0.71875 13.46875 -2.96875 C 11.257812 -5.226562 10.15625 -8.300781 10.15625 -12.1875 L 10.15625 -91.546875 L 11.109375 -92.5 L 69.46875 -92.5 C 70.007812 -89.875 70.28125 -87.023438 70.28125 -83.953125 C 70.28125 -80.890625 69.648438 -77.6875 68.390625 -74.34375 L 31.421875 -74.34375 L 31.546875 -64.59375 L 31.546875 -55.109375 C 33.898438 -55.203125 36.972656 -55.25 40.765625 -55.25 L 61.484375 -55.25 C 62.296875 -52.71875 62.703125 -49.828125 62.703125 -46.578125 C 62.703125 -43.328125 62.296875 -40.347656 61.484375 -37.640625 L 31.546875 -37.640625 Z M 31.546875 -27.359375 "/></g></g></g><g fill="#004aad" fill-opacity="1"><g transform="translate(431.057338, 283.905305)"><g><path d="M 7.453125 -0.265625 L 14.625 -92.359375 C 18.59375 -93.078125 23.285156 -93.4375 28.703125 -93.4375 C 34.117188 -93.4375 38.859375 -93.078125 42.921875 -92.359375 L 50.921875 -59.171875 C 54.078125 -44.191406 55.742188 -36.023438 55.921875 -34.671875 L 56.875 -34.671875 C 57.238281 -36.921875 58.910156 -45.085938 61.890625 -59.171875 L 70.015625 -92.359375 C 73.984375 -93.078125 78.675781 -93.4375 84.09375 -93.4375 C 89.507812 -93.4375 94.25 -93.078125 98.3125 -92.359375 L 105.5 -0.265625 C 102.695312 0.453125 99.238281 0.8125 95.125 0.8125 C 91.019531 0.8125 87.660156 0.585938 85.046875 0.140625 L 82.875 -37.515625 C 82.25 -52.492188 81.890625 -62.921875 81.796875 -68.796875 L 80.984375 -68.796875 L 67.578125 -13.671875 C 64.328125 -13.128906 60.601562 -12.859375 56.40625 -12.859375 C 52.207031 -12.859375 48.484375 -13.128906 45.234375 -13.671875 L 31.953125 -68.796875 L 31.015625 -68.796875 C 31.015625 -60.753906 30.648438 -50.328125 29.921875 -37.515625 L 27.890625 0.140625 C 25.273438 0.585938 21.910156 0.8125 17.796875 0.8125 C 13.691406 0.8125 10.242188 0.453125 7.453125 -0.265625 Z M 7.453125 -0.265625 "/></g></g></g><g fill="#004aad" fill-opacity="1"><g transform="translate(543.856849, 283.905305)"><g><path d="M 70.15625 -5.953125 C 67.257812 -3.609375 63.460938 -1.894531 58.765625 -0.8125 C 54.078125 0.269531 48.890625 0.8125 43.203125 0.8125 C 40.398438 0.8125 36.359375 0.765625 31.078125 0.671875 C 25.796875 0.585938 19.179688 0.453125 11.234375 0.265625 L 10.296875 -0.671875 L 10.296875 -91.8125 L 11.234375 -92.765625 C 16.472656 -92.941406 21.910156 -93.078125 27.546875 -93.171875 C 33.191406 -93.265625 39.128906 -93.3125 45.359375 -93.3125 C 53.035156 -93.3125 59.445312 -92.09375 64.59375 -89.65625 C 69.738281 -87.21875 73.847656 -83.875 76.921875 -79.625 C 79.992188 -75.382812 82.160156 -70.394531 83.421875 -64.65625 C 84.679688 -58.925781 85.3125 -52.765625 85.3125 -46.171875 C 85.3125 -37.148438 84.273438 -29.34375 82.203125 -22.75 C 80.128906 -16.15625 76.113281 -10.554688 70.15625 -5.953125 Z M 45.234375 -16.109375 C 57.148438 -16.109375 63.109375 -26.128906 63.109375 -46.171875 C 63.109375 -66.304688 57.148438 -76.375 45.234375 -76.375 C 42.335938 -76.375 39.785156 -76.375 37.578125 -76.375 C 35.367188 -76.375 33.453125 -76.421875 31.828125 -76.515625 L 31.828125 -15.984375 C 33.453125 -16.066406 35.367188 -16.109375 37.578125 -16.109375 C 39.785156 -16.109375 42.335938 -16.109375 45.234375 -16.109375 Z M 45.234375 -16.109375 "/></g></g></g><g fill="#004aad" fill-opacity="1"><g transform="translate(634.177722, 283.905305)"><g><path d="M 10.5625 0 L 10.5625 -92.5 C 13.363281 -93.039062 16.972656 -93.3125 21.390625 -93.3125 C 25.816406 -93.3125 29.472656 -93.039062 32.359375 -92.5 L 32.359375 0 C 29.472656 0.539062 25.816406 0.8125 21.390625 0.8125 C 16.972656 0.8125 13.363281 0.539062 10.5625 0 Z M 10.5625 0 "/></g></g></g><g fill="#004aad" fill-opacity="1"><g transform="translate(677.103839, 283.905305)"><g><path d="M 46.046875 -52.546875 L 67.3125 -52.671875 C 76.875 -52.671875 81.65625 -48.160156 81.65625 -39.140625 L 81.65625 -3.515625 C 70.007812 0.179688 57.773438 2.03125 44.953125 2.03125 C 38.453125 2.03125 32.695312 0.945312 27.6875 -1.21875 C 22.675781 -3.382812 18.476562 -6.5 15.09375 -10.5625 C 11.707031 -14.625 9.15625 -19.609375 7.4375 -25.515625 C 5.726562 -31.429688 4.875 -38.140625 4.875 -45.640625 C 4.875 -53.847656 6.066406 -61 8.453125 -67.09375 C 10.847656 -73.195312 14.054688 -78.28125 18.078125 -82.34375 C 22.097656 -86.40625 26.722656 -89.453125 31.953125 -91.484375 C 37.191406 -93.515625 42.65625 -94.53125 48.34375 -94.53125 C 60.082031 -94.53125 71.097656 -91.28125 81.390625 -84.78125 C 81.296875 -83.332031 80.957031 -81.863281 80.375 -80.375 C 79.789062 -78.882812 79.066406 -77.4375 78.203125 -76.03125 C 77.347656 -74.632812 76.351562 -73.375 75.21875 -72.25 C 74.09375 -71.125 72.945312 -70.15625 71.78125 -69.34375 C 64.28125 -74.21875 56.691406 -76.65625 49.015625 -76.65625 C 34.304688 -76.65625 26.953125 -66.359375 26.953125 -45.765625 C 26.953125 -25.273438 34.488281 -15.03125 49.5625 -15.03125 C 51.632812 -15.03125 53.640625 -15.117188 55.578125 -15.296875 C 57.523438 -15.484375 59.445312 -15.753906 61.34375 -16.109375 L 61.34375 -25.1875 C 61.34375 -27.257812 61.363281 -29.0625 61.40625 -30.59375 C 61.457031 -32.132812 61.523438 -33.445312 61.609375 -34.53125 L 54.84375 -34.53125 C 50.957031 -34.53125 48.269531 -35.273438 46.78125 -36.765625 C 45.289062 -38.253906 44.546875 -40.578125 44.546875 -43.734375 C 44.546875 -46.441406 45.046875 -49.378906 46.046875 -52.546875 Z M 46.046875 -52.546875 "/></g></g></g><g fill="#004aad" fill-opacity="1"><g transform="translate(757.980603, 277.513892)"><g><path d="M 36.257812 8.132812 L 43.144531 3.636719 C 43.050781 3.445312 29.273438 -17.792969 29.273438 -33.578125 C 29.273438 -49.554688 43.050781 -71.078125 43.144531 -71.269531 L 36.257812 -75.671875 C 35.585938 -74.714844 21.046875 -52.042969 21.046875 -33.578125 C 21.046875 -15.402344 35.585938 7.175781 36.257812 8.132812 Z M 36.257812 8.132812 "/></g></g></g><g fill="#004aad" fill-opacity="1"><g transform="translate(803.034024, 277.513892)"><g><path d="M 36.925781 1.339844 C 50.222656 1.339844 59.121094 -9.183594 59.121094 -24.585938 C 59.121094 -40.273438 49.363281 -50.988281 36.351562 -50.988281 C 28.507812 -50.988281 22.195312 -46.683594 19.039062 -42.09375 L 18.847656 -42.09375 L 18.847656 -49.648438 L 11 -49.648438 L 11 17.984375 L 18.847656 17.984375 L 18.847656 -7.078125 L 19.039062 -7.078125 C 23.152344 -1.816406 28.699219 1.339844 36.925781 1.339844 Z M 35.011719 -44.007812 C 44.960938 -44.007812 51.277344 -36.449219 51.277344 -25.0625 C 51.277344 -13.777344 45.058594 -5.453125 34.820312 -5.453125 C 25.636719 -5.453125 18.75 -13.296875 18.75 -25.0625 C 18.75 -35.585938 26.59375 -44.007812 35.011719 -44.007812 Z M 35.011719 -44.007812 "/></g></g></g><g fill="#004aad" fill-opacity="1"><g transform="translate(848.087445, 277.513892)"><g><path d="M 54.71875 -45.535156 L 54.71875 -53 L 27.167969 -53 L 27.167969 -68.496094 L 19.324219 -68.496094 C 19.324219 -66.582031 19.324219 -66.773438 19.324219 -63.617188 C 19.324219 -54.527344 17.410156 -53 7.175781 -53 C 7.175781 -48.886719 7.175781 -49.648438 7.175781 -45.535156 L 19.324219 -45.535156 L 19.324219 -19.515625 C 19.324219 -9.566406 24.109375 1.339844 39.414062 1.339844 C 45.535156 1.339844 51.179688 0 56.632812 -1.914062 L 56.632812 -10.140625 C 49.839844 -6.984375 43.625 -5.835938 39.699219 -5.835938 C 31.761719 -5.835938 27.167969 -11.863281 27.167969 -19.515625 L 27.167969 -45.535156 Z M 54.71875 -45.535156 "/></g></g></g><g fill="#004aad" fill-opacity="1"><g transform="translate(893.140862, 277.513892)"><g><path d="M 27.933594 8.132812 C 28.605469 7.175781 43.144531 -15.402344 43.144531 -33.578125 C 43.144531 -52.042969 28.605469 -74.714844 27.933594 -75.671875 L 21.046875 -71.269531 C 21.140625 -71.078125 34.917969 -49.554688 34.917969 -33.578125 C 34.917969 -17.792969 21.140625 3.445312 21.046875 3.636719 Z M 27.933594 8.132812 "/></g></g></g></svg>