<svg xmlns="http://www.w3.org/2000/svg" xmlns:xlink="http://www.w3.org/1999/xlink" width="500" zoomAndPan="magnify" viewBox="0 0 375 374.999991" height="500" preserveAspectRatio="xMidYMid meet" version="1.0"><defs><g/><clipPath id="527aebce6b"><path d="M 170 210 L 182 210 L 182 222 L 170 222 Z M 170 210 " clip-rule="nonzero"/></clipPath><clipPath id="374bf86885"><path d="M 179.425781 4.949219 L 296.097656 121.621094 L 179.425781 238.296875 L 62.75 121.621094 Z M 179.425781 4.949219 " clip-rule="nonzero"/></clipPath><clipPath id="c5034a59eb"><path d="M 179.425781 4.949219 L 296.097656 121.621094 L 179.425781 238.296875 L 62.75 121.621094 Z M 179.425781 4.949219 " clip-rule="nonzero"/></clipPath><clipPath id="aa47d87f43"><path d="M 177 202 L 189 202 L 189 214 L 177 214 Z M 177 202 " clip-rule="nonzero"/></clipPath><clipPath id="7748c7d81c"><path d="M 179.425781 4.949219 L 296.097656 121.621094 L 179.425781 238.296875 L 62.75 121.621094 Z M 179.425781 4.949219 " clip-rule="nonzero"/></clipPath><clipPath id="107f2658d8"><path d="M 179.425781 4.949219 L 296.097656 121.621094 L 179.425781 238.296875 L 62.75 121.621094 Z M 179.425781 4.949219 " clip-rule="nonzero"/></clipPath><clipPath id="6bc4f9dde6"><path d="M 124 74 L 137 74 L 137 86 L 124 86 Z M 124 74 " clip-rule="nonzero"/></clipPath><clipPath id="e770441209"><path d="M 179.425781 4.949219 L 296.097656 121.621094 L 179.425781 238.296875 L 62.75 121.621094 Z M 179.425781 4.949219 " clip-rule="nonzero"/></clipPath><clipPath id="c7e46c67ba"><path d="M 179.425781 4.949219 L 296.097656 121.621094 L 179.425781 238.296875 L 62.75 121.621094 Z M 179.425781 4.949219 " clip-rule="nonzero"/></clipPath><clipPath id="45db5ab4b4"><path d="M 132 67 L 144 67 L 144 79 L 132 79 Z M 132 67 " clip-rule="nonzero"/></clipPath><clipPath id="90b7b2f6be"><path d="M 179.425781 4.949219 L 296.097656 121.621094 L 179.425781 238.296875 L 62.75 121.621094 Z M 179.425781 4.949219 " clip-rule="nonzero"/></clipPath><clipPath id="172bee74a4"><path d="M 179.425781 4.949219 L 296.097656 121.621094 L 179.425781 238.296875 L 62.75 121.621094 Z M 179.425781 4.949219 " clip-rule="nonzero"/></clipPath><clipPath id="f2cdba1bcc"><path d="M 62 20 L 297 20 L 297 231 L 62 231 Z M 62 20 " clip-rule="nonzero"/></clipPath><clipPath id="2f733dfcac"><path d="M 179.425781 4.949219 L 296.097656 121.621094 L 179.425781 238.296875 L 62.75 121.621094 Z M 179.425781 4.949219 " clip-rule="nonzero"/></clipPath><clipPath id="3f57474084"><path d="M 179.425781 4.949219 L 296.097656 121.621094 L 179.425781 238.296875 L 62.75 121.621094 Z M 179.425781 4.949219 " clip-rule="nonzero"/></clipPath><clipPath id="2c06128bf0"><path d="M 85 110 L 93 110 L 93 118 L 85 118 Z M 85 110 " clip-rule="nonzero"/></clipPath><clipPath id="a1276e286f"><path d="M 179.425781 4.949219 L 296.097656 121.621094 L 179.425781 238.296875 L 62.75 121.621094 Z M 179.425781 4.949219 " clip-rule="nonzero"/></clipPath><clipPath id="e2e743f34c"><path d="M 179.425781 4.949219 L 296.097656 121.621094 L 179.425781 238.296875 L 62.75 121.621094 Z M 179.425781 4.949219 " clip-rule="nonzero"/></clipPath><clipPath id="b68899fc2f"><path d="M 92 117 L 101 117 L 101 126 L 92 126 Z M 92 117 " clip-rule="nonzero"/></clipPath><clipPath id="12b889dc37"><path d="M 179.425781 4.949219 L 296.097656 121.621094 L 179.425781 238.296875 L 62.75 121.621094 Z M 179.425781 4.949219 " clip-rule="nonzero"/></clipPath><clipPath id="3efc66569e"><path d="M 179.425781 4.949219 L 296.097656 121.621094 L 179.425781 238.296875 L 62.75 121.621094 Z M 179.425781 4.949219 " clip-rule="nonzero"/></clipPath><clipPath id="67878b52db"><path d="M 100 125 L 112 125 L 112 137 L 100 137 Z M 100 125 " clip-rule="nonzero"/></clipPath><clipPath id="36abef301a"><path d="M 179.425781 4.949219 L 296.097656 121.621094 L 179.425781 238.296875 L 62.75 121.621094 Z M 179.425781 4.949219 " clip-rule="nonzero"/></clipPath><clipPath id="d487edb54d"><path d="M 179.425781 4.949219 L 296.097656 121.621094 L 179.425781 238.296875 L 62.75 121.621094 Z M 179.425781 4.949219 " clip-rule="nonzero"/></clipPath><clipPath id="b885bef901"><path d="M 77 117 L 105 117 L 105 145 L 77 145 Z M 77 117 " clip-rule="nonzero"/></clipPath><clipPath id="c4c32b952e"><path d="M 179.425781 4.949219 L 296.097656 121.621094 L 179.425781 238.296875 L 62.75 121.621094 Z M 179.425781 4.949219 " clip-rule="nonzero"/></clipPath><clipPath id="b8916edca1"><path d="M 179.425781 4.949219 L 296.097656 121.621094 L 179.425781 238.296875 L 62.75 121.621094 Z M 179.425781 4.949219 " clip-rule="nonzero"/></clipPath><clipPath id="9c1230a1e9"><path d="M 254 99 L 282 99 L 282 126 L 254 126 Z M 254 99 " clip-rule="nonzero"/></clipPath><clipPath id="6f205deafe"><path d="M 179.425781 4.949219 L 296.097656 121.621094 L 179.425781 238.296875 L 62.75 121.621094 Z M 179.425781 4.949219 " clip-rule="nonzero"/></clipPath><clipPath id="500f38d390"><path d="M 179.425781 4.949219 L 296.097656 121.621094 L 179.425781 238.296875 L 62.75 121.621094 Z M 179.425781 4.949219 " clip-rule="nonzero"/></clipPath><clipPath id="f85c3ffb06"><path d="M 247 106 L 274 106 L 274 133 L 247 133 Z M 247 106 " clip-rule="nonzero"/></clipPath><clipPath id="026e6758ca"><path d="M 179.425781 4.949219 L 296.097656 121.621094 L 179.425781 238.296875 L 62.75 121.621094 Z M 179.425781 4.949219 " clip-rule="nonzero"/></clipPath><clipPath id="e50bb3bda9"><path d="M 179.425781 4.949219 L 296.097656 121.621094 L 179.425781 238.296875 L 62.75 121.621094 Z M 179.425781 4.949219 " clip-rule="nonzero"/></clipPath><clipPath id="08df7693b8"><path d="M 175 31 L 191 31 L 191 47 L 175 47 Z M 175 31 " clip-rule="nonzero"/></clipPath><clipPath id="59f10f1e0c"><path d="M 179.425781 4.949219 L 296.097656 121.621094 L 179.425781 238.296875 L 62.75 121.621094 Z M 179.425781 4.949219 " clip-rule="nonzero"/></clipPath><clipPath id="7cca3431bf"><path d="M 179.425781 4.949219 L 296.097656 121.621094 L 179.425781 238.296875 L 62.75 121.621094 Z M 179.425781 4.949219 " clip-rule="nonzero"/></clipPath><clipPath id="dedac81070"><path d="M 224 159 L 236 159 L 236 171 L 224 171 Z M 224 159 " clip-rule="nonzero"/></clipPath><clipPath id="b878bcd2f5"><path d="M 179.425781 4.949219 L 296.097656 121.621094 L 179.425781 238.296875 L 62.75 121.621094 Z M 179.425781 4.949219 " clip-rule="nonzero"/></clipPath><clipPath id="00498e0722"><path d="M 179.425781 4.949219 L 296.097656 121.621094 L 179.425781 238.296875 L 62.75 121.621094 Z M 179.425781 4.949219 " clip-rule="nonzero"/></clipPath><clipPath id="bff782be30"><path d="M 217 166 L 229 166 L 229 179 L 217 179 Z M 217 166 " clip-rule="nonzero"/></clipPath><clipPath id="eeb05fca2e"><path d="M 179.425781 4.949219 L 296.097656 121.621094 L 179.425781 238.296875 L 62.75 121.621094 Z M 179.425781 4.949219 " clip-rule="nonzero"/></clipPath><clipPath id="883588a640"><path d="M 179.425781 4.949219 L 296.097656 121.621094 L 179.425781 238.296875 L 62.75 121.621094 Z M 179.425781 4.949219 " clip-rule="nonzero"/></clipPath></defs><rect x="-37.5" width="450" fill="#ffffff" y="-37.499999" height="449.999989" fill-opacity="1"/><rect x="-37.5" width="450" fill="#ffffff" y="-37.499999" height="449.999989" fill-opacity="1"/><rect x="-37.5" width="450" fill="#ffffff" y="-37.499999" height="449.999989" fill-opacity="1"/><g clip-path="url(#527aebce6b)"><g clip-path="url(#374bf86885)"><g clip-path="url(#c5034a59eb)"><path fill="#004aad" d="M 181.304688 217.59375 L 173.777344 210.066406 L 170.015625 213.832031 L 177.542969 221.359375 L 181.304688 217.59375 " fill-opacity="1" fill-rule="nonzero"/></g></g></g><g clip-path="url(#aa47d87f43)"><g clip-path="url(#7748c7d81c)"><g clip-path="url(#107f2658d8)"><path fill="#004aad" d="M 188.832031 210.066406 L 181.304688 202.539062 L 177.542969 206.304688 L 185.070312 213.832031 L 188.832031 210.066406 " fill-opacity="1" fill-rule="nonzero"/></g></g></g><g clip-path="url(#6bc4f9dde6)"><g clip-path="url(#e770441209)"><g clip-path="url(#c7e46c67ba)"><path fill="#004aad" d="M 124.851562 78.339844 L 132.378906 85.867188 L 136.140625 82.105469 L 128.613281 74.578125 L 124.851562 78.339844 " fill-opacity="1" fill-rule="nonzero"/></g></g></g><g clip-path="url(#45db5ab4b4)"><g clip-path="url(#90b7b2f6be)"><g clip-path="url(#172bee74a4)"><path fill="#004aad" d="M 132.378906 70.8125 L 139.90625 78.339844 L 143.667969 74.578125 L 136.140625 67.050781 L 132.378906 70.8125 " fill-opacity="1" fill-rule="nonzero"/></g></g></g><g clip-path="url(#f2cdba1bcc)"><g clip-path="url(#2f733dfcac)"><g clip-path="url(#3f57474084)"><path fill="#004aad" d="M 258.460938 91.511719 L 288.570312 121.621094 L 269.75 140.441406 L 239.640625 110.332031 Z M 222.707031 123.503906 L 218.941406 127.269531 C 217.90625 128.304688 216.214844 128.304688 215.179688 127.269531 L 173.777344 85.867188 C 172.742188 84.832031 172.742188 83.140625 173.777344 82.105469 L 177.542969 78.339844 C 178.578125 77.304688 180.269531 77.304688 181.304688 78.339844 L 222.707031 119.742188 C 223.742188 120.777344 223.742188 122.46875 222.707031 123.503906 Z M 205.769531 129.148438 C 204.734375 130.1875 203.042969 130.1875 202.007812 129.148438 L 171.898438 99.039062 C 170.859375 98.003906 170.859375 96.3125 171.898438 95.277344 C 172.933594 94.242188 174.625 94.242188 175.660156 95.277344 L 205.769531 125.386719 C 206.804688 126.421875 206.804688 128.113281 205.769531 129.148438 Z M 203.886719 142.324219 L 200.125 146.085938 C 199.085938 147.121094 197.398438 147.121094 196.359375 146.085938 L 154.960938 104.6875 C 153.925781 103.648438 153.925781 101.960938 154.960938 100.921875 L 158.722656 97.160156 C 159.761719 96.121094 161.453125 96.121094 162.488281 97.160156 L 203.886719 138.558594 C 204.925781 139.59375 204.925781 141.285156 203.886719 142.324219 Z M 186.953125 147.96875 C 185.914062 149.003906 184.222656 149.003906 183.1875 147.96875 L 153.078125 117.859375 C 152.042969 116.824219 152.042969 115.132812 153.078125 114.09375 C 154.113281 113.058594 155.804688 113.058594 156.84375 114.09375 L 186.953125 144.203125 C 187.988281 145.242188 187.988281 146.929688 186.953125 147.96875 Z M 185.070312 161.140625 L 181.304688 164.90625 C 180.269531 165.941406 178.578125 165.941406 177.542969 164.90625 L 136.140625 123.503906 C 135.105469 122.46875 135.105469 120.777344 136.140625 119.742188 L 139.90625 115.976562 C 140.941406 114.941406 142.632812 114.941406 143.667969 115.976562 L 185.070312 157.378906 C 186.105469 158.414062 186.105469 160.105469 185.070312 161.140625 Z M 228.351562 151.730469 L 243.40625 166.785156 L 224.585938 185.605469 L 209.53125 170.550781 Z M 188.832031 202.539062 C 194.023438 207.730469 194.023438 216.167969 188.832031 221.359375 C 183.644531 226.546875 175.203125 226.546875 170.015625 221.359375 C 164.824219 216.167969 164.824219 207.730469 170.015625 202.539062 C 175.203125 197.351562 183.644531 197.351562 188.832031 202.539062 Z M 100.386719 151.730469 L 70.277344 121.621094 L 89.097656 102.804688 L 119.207031 132.914062 Z M 124.851562 85.867188 C 119.660156 80.679688 119.660156 72.238281 124.851562 67.050781 C 130.042969 61.859375 138.480469 61.859375 143.667969 67.050781 C 148.859375 72.238281 148.859375 80.679688 143.667969 85.867188 C 138.480469 91.058594 130.042969 91.058594 124.851562 85.867188 Z M 174.25 47.761719 L 171.273438 26.90625 L 192.125 29.882812 L 195.101562 50.738281 Z M 269.75 147.96875 L 296.097656 121.621094 L 258.460938 83.984375 L 247.167969 95.277344 L 239.640625 87.75 C 234.453125 82.558594 226.015625 82.558594 220.824219 87.75 L 209.53125 99.039062 L 202.007812 91.511719 L 211.414062 82.105469 C 216.605469 76.914062 216.605469 68.476562 211.414062 63.285156 L 200.757812 52.628906 L 196.832031 25.179688 L 164.996094 20.628906 L 169.542969 52.464844 L 196.992188 56.390625 L 207.652344 67.050781 C 210.769531 70.167969 210.769531 75.222656 207.652344 78.339844 L 198.242188 87.75 L 185.070312 74.578125 C 181.953125 71.460938 176.894531 71.460938 173.777344 74.578125 L 170.015625 78.339844 C 166.898438 81.457031 166.898438 86.515625 170.015625 89.632812 L 170.359375 89.976562 C 169.558594 90.367188 168.792969 90.851562 168.132812 91.511719 C 167.472656 92.175781 166.988281 92.941406 166.597656 93.742188 L 166.25 93.394531 C 163.132812 90.277344 158.078125 90.277344 154.960938 93.394531 L 149.160156 87.59375 C 154.621094 80.3125 154.054688 69.910156 147.433594 63.285156 C 140.171875 56.023438 128.351562 56.023438 121.085938 63.285156 C 113.824219 70.550781 113.824219 82.367188 121.085938 89.632812 C 127.710938 96.253906 138.113281 96.820312 145.398438 91.359375 L 151.195312 97.160156 C 148.082031 100.277344 148.082031 105.332031 151.195312 108.449219 L 151.542969 108.796875 C 150.742188 109.183594 149.976562 109.671875 149.316406 110.332031 C 148.652344 110.992188 148.167969 111.757812 147.777344 112.558594 L 147.433594 112.214844 C 144.316406 109.097656 139.257812 109.097656 136.140625 112.214844 L 132.378906 115.976562 C 129.261719 119.09375 129.261719 124.152344 132.378906 127.269531 L 145.550781 140.441406 L 134.261719 151.730469 C 131.144531 154.847656 126.085938 154.847656 122.96875 151.730469 L 115.441406 144.203125 L 126.734375 132.914062 L 89.097656 95.277344 L 62.75 121.621094 L 100.386719 159.257812 L 111.679688 147.96875 L 119.207031 155.496094 C 124.394531 160.683594 132.835938 160.683594 138.023438 155.496094 L 149.316406 144.203125 L 156.84375 151.730469 L 145.550781 163.023438 C 140.363281 168.210938 140.363281 176.652344 145.550781 181.839844 L 164.523438 200.8125 C 159.0625 208.097656 159.628906 218.5 166.25 225.121094 C 173.515625 232.386719 185.335938 232.386719 192.597656 225.121094 C 199.859375 217.859375 199.859375 206.039062 192.597656 198.777344 C 185.972656 192.152344 175.574219 191.585938 168.289062 197.050781 L 149.316406 178.078125 C 146.199219 174.960938 146.199219 169.902344 149.316406 166.785156 L 160.605469 155.496094 L 173.777344 168.667969 C 176.894531 171.785156 181.953125 171.785156 185.070312 168.667969 L 188.832031 164.90625 C 191.949219 161.789062 191.949219 156.730469 188.832031 153.613281 L 188.488281 153.269531 C 189.289062 152.878906 190.054688 152.394531 190.714844 151.730469 C 191.375 151.070312 191.863281 150.304688 192.25 149.503906 L 192.597656 149.851562 C 195.714844 152.964844 200.769531 152.964844 203.886719 149.851562 L 213.296875 159.257812 L 202.007812 170.550781 L 224.585938 193.132812 L 250.933594 166.785156 L 228.351562 144.203125 L 217.058594 155.496094 L 207.652344 146.085938 C 210.769531 142.96875 210.769531 137.910156 207.652344 134.796875 L 207.304688 134.449219 C 208.105469 134.058594 208.871094 133.574219 209.53125 132.914062 C 210.195312 132.25 210.679688 131.488281 211.070312 130.6875 L 211.414062 131.03125 C 214.53125 134.148438 219.589844 134.148438 222.707031 131.03125 L 226.46875 127.269531 C 229.585938 124.152344 229.585938 119.09375 226.46875 115.976562 L 213.296875 102.804688 L 224.585938 91.511719 C 227.703125 88.398438 232.761719 88.398438 235.878906 91.511719 L 243.40625 99.039062 L 232.113281 110.332031 L 269.75 147.96875 " fill-opacity="1" fill-rule="nonzero"/></g></g></g><g clip-path="url(#2c06128bf0)"><g clip-path="url(#a1276e286f)"><g clip-path="url(#e2e743f34c)"><path fill="#004aad" d="M 92.859375 114.09375 L 89.097656 110.332031 L 85.332031 114.09375 L 89.097656 117.859375 L 92.859375 114.09375 " fill-opacity="1" fill-rule="nonzero"/></g></g></g><g clip-path="url(#b68899fc2f)"><g clip-path="url(#12b889dc37)"><g clip-path="url(#3efc66569e)"><path fill="#004aad" d="M 100.386719 121.621094 L 96.625 117.859375 L 92.859375 121.621094 L 96.625 125.386719 L 100.386719 121.621094 " fill-opacity="1" fill-rule="nonzero"/></g></g></g><g clip-path="url(#67878b52db)"><g clip-path="url(#36abef301a)"><g clip-path="url(#d487edb54d)"><path fill="#004aad" d="M 111.679688 132.914062 L 104.152344 125.386719 L 100.386719 129.148438 L 107.914062 136.675781 L 111.679688 132.914062 " fill-opacity="1" fill-rule="nonzero"/></g></g></g><g clip-path="url(#b885bef901)"><g clip-path="url(#c4c32b952e)"><g clip-path="url(#b8916edca1)"><path fill="#004aad" d="M 104.152344 140.441406 L 81.570312 117.859375 L 77.804688 121.621094 L 100.386719 144.203125 L 104.152344 140.441406 " fill-opacity="1" fill-rule="nonzero"/></g></g></g><g clip-path="url(#9c1230a1e9)"><g clip-path="url(#6f205deafe)"><g clip-path="url(#500f38d390)"><path fill="#004aad" d="M 254.695312 102.804688 L 277.277344 125.386719 L 281.042969 121.621094 L 258.460938 99.039062 L 254.695312 102.804688 " fill-opacity="1" fill-rule="nonzero"/></g></g></g><g clip-path="url(#f85c3ffb06)"><g clip-path="url(#026e6758ca)"><g clip-path="url(#e50bb3bda9)"><path fill="#004aad" d="M 247.167969 110.332031 L 269.75 132.914062 L 273.515625 129.148438 L 250.933594 106.566406 L 247.167969 110.332031 " fill-opacity="1" fill-rule="nonzero"/></g></g></g><g clip-path="url(#08df7693b8)"><g clip-path="url(#59f10f1e0c)"><g clip-path="url(#7cca3431bf)"><path fill="#004aad" d="M 175.660156 35.058594 L 186.953125 46.351562 L 190.714844 42.585938 L 179.425781 31.296875 L 175.660156 35.058594 " fill-opacity="1" fill-rule="nonzero"/></g></g></g><g clip-path="url(#dedac81070)"><g clip-path="url(#b878bcd2f5)"><g clip-path="url(#00498e0722)"><path fill="#004aad" d="M 224.585938 163.023438 L 232.113281 170.550781 L 235.878906 166.785156 L 228.351562 159.257812 L 224.585938 163.023438 " fill-opacity="1" fill-rule="nonzero"/></g></g></g><g clip-path="url(#bff782be30)"><g clip-path="url(#eeb05fca2e)"><g clip-path="url(#883588a640)"><path fill="#004aad" d="M 217.058594 170.550781 L 224.585938 178.078125 L 228.351562 174.3125 L 220.824219 166.785156 L 217.058594 170.550781 " fill-opacity="1" fill-rule="nonzero"/></g></g></g><g fill="#004aad" fill-opacity="1"><g transform="translate(1.52005, 335.122923)"><g><path d="M 57.5 -53.28125 L 57.375 -62.71875 L 57.375 -87.078125 C 60 -87.585938 63.414062 -87.84375 67.625 -87.84375 C 71.832031 -87.84375 75.210938 -87.585938 77.765625 -87.078125 L 77.765625 0 C 75.046875 0.507812 71.644531 0.765625 67.5625 0.765625 C 63.488281 0.765625 60.09375 0.507812 57.375 0 L 57.375 -27.03125 L 57.5 -36.453125 L 51.125 -36.328125 L 36.328125 -36.328125 L 29.953125 -36.453125 L 30.09375 -27.03125 L 30.09375 0 C 27.457031 0.507812 24.054688 0.765625 19.890625 0.765625 C 15.722656 0.765625 12.320312 0.507812 9.6875 0 L 9.6875 -87.078125 C 12.320312 -87.585938 15.722656 -87.84375 19.890625 -87.84375 C 24.054688 -87.84375 27.457031 -87.585938 30.09375 -87.078125 L 30.09375 -62.71875 L 29.953125 -53.28125 L 36.328125 -53.421875 L 51.125 -53.421875 Z M 57.5 -53.28125 "/></g></g></g><g fill="#004aad" fill-opacity="1"><g transform="translate(88.970703, 335.122923)"><g><path d="M 66.03125 -5.609375 C 63.3125 -3.398438 59.742188 -1.785156 55.328125 -0.765625 C 50.910156 0.253906 46.023438 0.765625 40.671875 0.765625 C 38.035156 0.765625 34.226562 0.722656 29.25 0.640625 C 24.28125 0.554688 18.054688 0.425781 10.578125 0.25 L 9.6875 -0.640625 L 9.6875 -86.4375 L 10.578125 -87.328125 C 15.503906 -87.492188 20.625 -87.617188 25.9375 -87.703125 C 31.25 -87.796875 36.835938 -87.84375 42.703125 -87.84375 C 49.929688 -87.84375 55.96875 -86.691406 60.8125 -84.390625 C 65.65625 -82.097656 69.519531 -78.953125 72.40625 -74.953125 C 75.300781 -70.960938 77.34375 -66.269531 78.53125 -60.875 C 79.71875 -55.476562 80.3125 -49.675781 80.3125 -43.46875 C 80.3125 -34.96875 79.332031 -27.613281 77.375 -21.40625 C 75.425781 -15.207031 71.644531 -9.941406 66.03125 -5.609375 Z M 42.578125 -15.171875 C 53.796875 -15.171875 59.40625 -24.601562 59.40625 -43.46875 C 59.40625 -62.425781 53.796875 -71.90625 42.578125 -71.90625 C 39.859375 -71.90625 37.457031 -71.90625 35.375 -71.90625 C 33.289062 -71.90625 31.484375 -71.945312 29.953125 -72.03125 L 29.953125 -15.046875 C 31.484375 -15.128906 33.289062 -15.171875 35.375 -15.171875 C 37.457031 -15.171875 39.859375 -15.171875 42.578125 -15.171875 Z M 42.578125 -15.171875 "/></g></g></g><g fill="#004aad" fill-opacity="1"><g transform="translate(165.538532, 326.574448)"><g><path d="M 39.808594 8.929688 L 47.371094 3.992188 C 47.265625 3.78125 32.140625 -19.539062 32.140625 -36.867188 C 32.140625 -54.410156 47.265625 -78.042969 47.371094 -78.253906 L 39.808594 -83.085938 C 39.074219 -82.035156 23.109375 -57.140625 23.109375 -36.867188 C 23.109375 -16.910156 39.074219 7.878906 39.808594 8.929688 Z M 39.808594 8.929688 "/></g></g></g><g fill="#004aad" fill-opacity="1"><g transform="translate(215.006424, 326.574448)"><g><path d="M 40.546875 1.46875 C 55.144531 1.46875 64.914062 -10.082031 64.914062 -26.996094 C 64.914062 -44.222656 54.199219 -55.984375 39.914062 -55.984375 C 31.300781 -55.984375 24.367188 -51.257812 20.902344 -46.21875 L 20.691406 -46.21875 L 20.691406 -54.515625 L 12.078125 -54.515625 L 12.078125 19.746094 L 20.691406 19.746094 L 20.691406 -7.773438 L 20.902344 -7.773438 C 25.417969 -1.996094 31.511719 1.46875 40.546875 1.46875 Z M 38.445312 -48.316406 C 49.367188 -48.316406 56.300781 -40.019531 56.300781 -27.519531 C 56.300781 -15.125 49.472656 -5.988281 38.234375 -5.988281 C 28.152344 -5.988281 20.585938 -14.601562 20.585938 -27.519531 C 20.585938 -39.074219 29.199219 -48.316406 38.445312 -48.316406 Z M 38.445312 -48.316406 "/></g></g></g><g fill="#004aad" fill-opacity="1"><g transform="translate(264.474316, 326.574448)"><g><path d="M 60.082031 -50 L 60.082031 -58.191406 L 29.832031 -58.191406 L 29.832031 -75.207031 L 21.21875 -75.207031 C 21.21875 -73.105469 21.21875 -73.316406 21.21875 -69.851562 C 21.21875 -59.871094 19.117188 -58.191406 7.878906 -58.191406 C 7.878906 -53.675781 7.878906 -54.515625 7.878906 -50 L 21.21875 -50 L 21.21875 -21.429688 C 21.21875 -10.503906 26.46875 1.46875 43.277344 1.46875 C 50 1.46875 56.195312 0 62.183594 -2.101562 L 62.183594 -11.132812 C 54.726562 -7.667969 47.898438 -6.40625 43.589844 -6.40625 C 34.871094 -6.40625 29.832031 -13.023438 29.832031 -21.429688 L 29.832031 -50 Z M 60.082031 -50 "/></g></g></g><g fill="#004aad" fill-opacity="1"><g transform="translate(313.942204, 326.574448)"><g><path d="M 30.671875 8.929688 C 31.40625 7.878906 47.371094 -16.910156 47.371094 -36.867188 C 47.371094 -57.140625 31.40625 -82.035156 30.671875 -83.085938 L 23.109375 -78.253906 C 23.214844 -78.042969 38.339844 -54.410156 38.339844 -36.867188 C 38.339844 -19.539062 23.214844 3.78125 23.109375 3.992188 Z M 30.671875 8.929688 "/></g></g></g></svg>